<svg width="506" height="168" viewBox="0 0 506 168" fill="none" xmlns="http://www.w3.org/2000/svg">
<mask id="path-1-outside-1_117_2777" maskUnits="userSpaceOnUse" x="4.2793" y="4.14844" width="469" height="160" fill="black">
<rect fill="white" x="4.2793" y="4.14844" width="469" height="160"/>
<path d="M80.7619 37.8359C80.8921 39.7891 80.6317 42.7188 79.9807 46.625C79.4598 50.5312 78.5484 54.4375 77.2463 58.3438C75.9442 62.25 74.2515 65.7005 72.1682 68.6953C70.2151 71.5599 67.9364 72.9922 65.3322 72.9922C64.0302 72.9922 62.9234 72.2109 62.0119 70.6484C61.1005 69.0859 60.3192 67.0677 59.6682 64.5938C59.0171 62.1198 58.4963 59.3854 58.1057 56.3906C57.7151 53.2656 57.3244 50.2708 56.9338 47.4062C56.6734 44.5417 56.413 41.9375 56.1526 39.5938C56.0224 37.1198 55.8921 35.2969 55.7619 34.125C55.2411 33.3438 54.2645 32.5625 52.8322 31.7812C51.5302 30.8698 50.3583 30.4141 49.3166 30.4141C48.1447 30.4141 46.7125 31.5208 45.0197 33.7344C43.4572 35.9479 41.9599 38.5521 40.5276 41.5469C39.0953 44.5417 37.9234 47.5365 37.0119 50.5312C36.1005 53.3958 35.7099 55.6094 35.8401 57.1719C35.8401 58.2135 36.8166 60.0365 38.7697 62.6406C40.8531 65.2448 43.3921 68.3047 46.3869 71.8203C49.3817 75.3359 52.6369 79.1771 56.1526 83.3438C59.6682 87.3802 62.9234 91.4167 65.9182 95.4531C68.913 99.4896 71.452 103.331 73.5354 106.977C75.6187 110.622 76.7255 113.747 76.8557 116.352C77.1161 119.477 76.4 123.513 74.7072 128.461C73.1447 133.279 71.1265 137.966 68.6526 142.523C66.1786 147.081 63.5093 151.052 60.6447 154.438C57.9104 157.693 55.4364 159.385 53.2229 159.516C51.7906 159.646 49.9026 158.995 47.5588 157.562C45.2151 156.26 42.676 154.503 39.9416 152.289C37.2072 150.076 34.4078 147.667 31.5432 145.062C28.8088 142.328 26.2046 139.659 23.7307 137.055C21.3869 134.451 19.3687 132.107 17.676 130.023C16.1135 127.81 15.202 126.182 14.9416 125.141C14.4208 123.578 14.0953 121.495 13.9651 118.891C13.9651 116.156 14.0953 113.552 14.3557 111.078C14.7463 108.474 15.202 106.26 15.7229 104.438C16.3739 102.484 17.1552 101.508 18.0666 101.508C18.7177 101.508 19.7593 102.354 21.1916 104.047C22.7541 105.74 24.5119 107.888 26.4651 110.492C28.4182 113.096 30.5015 115.961 32.7151 119.086C35.0588 122.081 37.2724 124.88 39.3557 127.484C41.439 130.089 43.327 132.302 45.0197 134.125C46.7125 135.818 48.0796 136.599 49.1213 136.469C49.9026 136.469 50.7489 135.883 51.6604 134.711C52.5718 133.409 53.4182 131.911 54.1994 130.219C54.9807 128.396 55.6317 126.573 56.1526 124.75C56.6734 122.927 56.9338 121.495 56.9338 120.453C56.8036 118.891 55.5015 116.677 53.0276 113.812C50.6838 110.818 47.689 107.497 44.0432 103.852C40.5276 100.076 36.6864 96.1693 32.5197 92.1328C28.4833 88.0964 24.6421 84.2552 20.9963 80.6094C17.4807 76.8333 14.4859 73.4479 12.0119 70.4531C9.66819 67.4583 8.43121 65.1797 8.301 63.6172C8.17079 62.0547 8.62652 59.6458 9.66819 56.3906C10.7099 53.0052 12.077 49.2292 13.7697 45.0625C15.5927 40.8958 17.6109 36.6641 19.8244 32.3672C22.038 28.0703 24.3166 24.099 26.6604 20.4531C29.0041 16.8073 31.2828 13.8776 33.4963 11.6641C35.7099 9.32031 37.663 8.14844 39.3557 8.14844C41.5692 8.14844 44.1083 8.66927 46.9729 9.71094C49.8375 10.6224 52.7671 11.9245 55.7619 13.6172C58.8869 15.1797 61.8817 17.0026 64.7463 19.0859C67.7411 21.1693 70.4104 23.3177 72.7541 25.5312C75.0979 27.6146 76.9859 29.763 78.4182 31.9766C79.8505 34.0599 80.6317 36.013 80.7619 37.8359Z"/>
<path d="M132.91 51.5078C133.171 51.8984 133.561 53.7214 134.082 56.9766C134.603 60.2318 135.124 64.2682 135.645 69.0859C136.296 73.9036 136.882 79.112 137.403 84.7109C138.054 90.3099 138.64 95.6484 139.16 100.727C139.811 105.805 140.332 110.362 140.723 114.398C141.113 118.435 141.439 121.169 141.699 122.602C142.09 124.945 142.546 127.549 143.067 130.414C143.587 133.148 144.043 135.818 144.434 138.422C144.824 140.896 145.085 143.044 145.215 144.867C145.475 146.69 145.41 147.797 145.02 148.188C144.759 148.578 143.718 148.708 141.895 148.578C140.072 148.318 138.054 147.927 135.84 147.406C133.757 146.755 131.738 146.039 129.785 145.258C127.962 144.346 126.791 143.5 126.27 142.719C125.749 142.068 125.228 141.091 124.707 139.789C124.317 138.487 123.796 136.208 123.145 132.953C121.712 134.906 120.15 136.99 118.457 139.203C116.895 141.286 115.332 143.24 113.77 145.062C112.207 146.755 110.775 148.122 109.473 149.164C108.171 150.206 107.194 150.727 106.543 150.727C105.502 150.727 103.939 149.685 101.856 147.602C99.7723 145.388 97.689 142.914 95.6057 140.18C93.5223 137.445 91.6343 134.841 89.9416 132.367C88.2489 129.893 87.3375 128.266 87.2072 127.484C86.9468 126.703 86.8166 124.555 86.8166 121.039C86.9468 117.523 87.077 113.617 87.2072 109.32C87.4677 104.893 87.7281 100.531 87.9885 96.2344C88.2489 91.8073 88.5093 88.2917 88.7697 85.6875C89.0302 83.0833 89.2906 80.2188 89.551 77.0938C89.9416 73.8385 90.3322 70.8438 90.7229 68.1094C91.1135 65.2448 91.439 62.7708 91.6994 60.6875C92.0901 58.6042 92.4156 57.3672 92.676 56.9766C92.9364 56.5859 93.6526 56.3906 94.8244 56.3906C96.1265 56.2604 97.4286 56.3255 98.7307 56.5859C100.163 56.7161 101.465 57.0417 102.637 57.5625C103.809 57.9531 104.59 58.474 104.981 59.125C105.241 59.6458 105.371 61.3385 105.371 64.2031C105.502 66.9375 105.567 70.3229 105.567 74.3594C105.567 78.2656 105.567 82.5625 105.567 87.25C105.567 91.8073 105.502 96.1042 105.371 100.141C105.371 104.047 105.306 107.432 105.176 110.297C105.176 113.031 105.176 114.659 105.176 115.18C105.176 116.221 105.762 118.24 106.934 121.234C108.236 124.229 109.538 127.094 110.84 129.828L120.996 117.719C120.866 115.375 120.736 112.38 120.606 108.734C120.606 105.089 120.541 101.247 120.41 97.2109C120.28 93.1745 120.15 89.0729 120.02 84.9062C119.89 80.7396 119.824 76.9635 119.824 73.5781C119.824 70.1927 119.824 67.3932 119.824 65.1797C119.824 62.9661 119.89 61.6641 120.02 61.2734C120.41 60.4922 121.192 59.4505 122.363 58.1484C123.535 56.8464 124.837 55.6094 126.27 54.4375C127.702 53.2656 129.004 52.3542 130.176 51.7031C131.478 51.0521 132.39 50.987 132.91 51.5078Z"/>
<path d="M195.41 49.5547C196.452 50.2057 197.429 51.5078 198.34 53.4609C199.382 55.2839 200.293 57.4323 201.074 59.9062C201.986 62.25 202.702 64.7891 203.223 67.5234C203.874 70.2578 204.395 72.7969 204.785 75.1406C205.306 77.4844 205.632 79.5026 205.762 81.1953C205.892 82.7578 205.892 83.7344 205.762 84.125C205.502 84.6458 204.72 85.1667 203.418 85.6875C202.246 86.2083 200.488 86.7943 198.145 87.4453C195.801 88.0964 192.546 88.8125 188.379 89.5938C188.119 82.4323 187.598 77.0286 186.817 73.3828C186.035 69.6068 185.189 66.9375 184.278 65.375C183.236 63.5521 182.129 62.6406 180.957 62.6406C179.785 63.1615 178.744 63.8125 177.832 64.5938C176.921 65.2448 176.14 65.9609 175.488 66.7422C174.707 67.6536 173.991 68.6302 173.34 69.6719C173.08 70.0625 172.819 70.974 172.559 72.4062C172.298 73.8385 172.038 75.987 171.778 78.8516C171.778 79.763 171.712 81.651 171.582 84.5156C171.582 87.3802 171.517 90.7005 171.387 94.4766C171.387 98.2526 171.322 102.224 171.192 106.391C171.192 110.557 171.127 114.464 170.996 118.109C170.996 121.625 170.931 124.62 170.801 127.094C170.801 129.568 170.736 131 170.606 131.391C170.345 132.042 169.694 132.953 168.653 134.125C167.611 135.297 166.439 136.404 165.137 137.445C163.835 138.357 162.598 139.138 161.426 139.789C160.254 140.31 159.473 140.245 159.082 139.594C158.692 139.203 158.301 137.51 157.91 134.516C157.52 131.521 157.064 127.875 156.543 123.578C156.153 119.151 155.697 114.333 155.176 109.125C154.655 103.917 154.199 98.9036 153.809 94.0859C153.418 89.2682 153.093 84.9714 152.832 81.1953C152.572 77.2891 152.377 74.4896 152.246 72.7969C152.116 70.3229 151.986 67.5885 151.856 64.5938C151.725 61.599 151.595 58.7995 151.465 56.1953C151.465 53.4609 151.465 51.1172 151.465 49.1641C151.595 47.0807 151.856 45.8438 152.246 45.4531C152.507 45.0625 153.353 44.9974 154.785 45.2578C156.348 45.388 157.975 45.7786 159.668 46.4297C161.491 46.9505 163.184 47.6667 164.746 48.5781C166.309 49.4896 167.35 50.3359 167.871 51.1172C168.262 51.7682 168.653 52.7448 169.043 54.0469C171.517 52.7448 173.861 51.5729 176.074 50.5312C178.418 49.3594 180.632 48.513 182.715 47.9922C184.929 47.4714 187.077 47.3411 189.16 47.6016C191.244 47.7318 193.327 48.3828 195.41 49.5547Z"/>
<path d="M224.707 131.586C222.884 124.945 220.866 117.133 218.653 108.148C216.83 100.466 214.616 91.1562 212.012 80.2188C209.538 69.151 206.869 56.5208 204.004 42.3281C204.004 41.4167 204.59 40.3099 205.762 39.0078C206.804 37.5755 208.106 36.2734 209.668 35.1016C211.231 33.7995 212.858 32.7578 214.551 31.9766C216.244 31.0651 217.741 30.6094 219.043 30.6094C219.564 31.3906 220.475 34.8411 221.778 40.9609C222.298 43.5651 222.884 46.8854 223.535 50.9219C224.317 54.8281 225.163 59.7109 226.074 65.5703C226.986 71.4297 227.962 78.3307 229.004 86.2734C230.176 94.0859 231.478 103.135 232.91 113.422C233.952 106.391 234.929 99.75 235.84 93.5C236.882 87.25 237.793 81.7161 238.574 76.8984C239.486 71.2995 240.332 66.0911 241.113 61.2734C241.504 58.2786 241.96 55.1536 242.481 51.8984C243.002 48.513 243.522 45.4531 244.043 42.7188C244.694 39.9844 245.345 37.7057 245.996 35.8828C246.778 33.9297 247.559 32.9531 248.34 32.9531C249.121 32.9531 250.293 33.1484 251.856 33.5391C253.418 33.7995 254.981 34.1901 256.543 34.7109C258.236 35.2318 259.733 35.8828 261.035 36.6641C262.337 37.3151 262.988 38.0312 262.988 38.8125C262.988 39.2031 262.598 41.1562 261.817 44.6719C261.035 48.0573 259.994 52.4193 258.692 57.7578C257.39 63.0964 255.892 69.151 254.199 75.9219C252.507 82.5625 250.749 89.3333 248.926 96.2344C247.233 103.135 245.475 109.906 243.653 116.547C241.83 123.188 240.137 129.112 238.574 134.32C237.142 139.398 235.905 143.565 234.863 146.82C233.822 149.945 233.106 151.508 232.715 151.508C232.324 151.508 231.218 149.75 229.395 146.234C227.702 142.589 226.14 137.706 224.707 131.586Z"/>
<path d="M285.449 72.0156C285.71 72.6667 285.84 74.75 285.84 78.2656C285.97 81.651 285.97 85.8177 285.84 90.7656C285.84 95.5833 285.71 100.792 285.449 106.391C285.189 111.859 284.863 117.068 284.473 122.016C284.212 126.833 283.887 131 283.496 134.516C283.106 137.901 282.715 139.919 282.324 140.57C281.153 142.393 279.395 143.565 277.051 144.086C274.707 144.477 273.015 144.542 271.973 144.281C271.452 144.281 270.866 142.784 270.215 139.789C269.694 136.794 269.173 133.018 268.653 128.461C268.132 123.904 267.676 118.956 267.285 113.617C266.895 108.279 266.569 103.201 266.309 98.3828C266.048 93.4349 265.918 89.138 265.918 85.4922C265.918 81.8464 266.048 79.5026 266.309 78.4609C266.699 76.7682 267.806 75.2708 269.629 73.9688C271.582 72.6667 273.6 71.6901 275.684 71.0391C277.897 70.388 279.916 70.1276 281.738 70.2578C283.692 70.2578 284.929 70.8438 285.449 72.0156ZM286.426 40.375C286.947 41.4167 287.142 42.849 287.012 44.6719C287.012 46.4948 286.817 48.3828 286.426 50.3359C286.035 52.2891 285.515 54.1771 284.863 56C284.212 57.8229 283.561 59.2552 282.91 60.2969C281.608 62.1198 279.655 63.2917 277.051 63.8125C274.577 64.2031 272.754 64.2682 271.582 64.0078C270.671 63.8776 269.759 63.2917 268.848 62.25C267.936 61.0781 267.155 59.7109 266.504 58.1484C265.853 56.4557 265.397 54.6328 265.137 52.6797C264.877 50.7266 264.942 48.9036 265.332 47.2109C265.723 45.5182 266.96 44.0208 269.043 42.7188C271.127 41.2865 273.34 40.2448 275.684 39.5938C278.028 38.8125 280.241 38.487 282.324 38.6172C284.408 38.6172 285.775 39.2031 286.426 40.375Z"/>
<path d="M312.793 131.586C310.97 124.945 308.952 117.133 306.738 108.148C304.916 100.466 302.702 91.1562 300.098 80.2188C297.624 69.151 294.955 56.5208 292.09 42.3281C292.09 41.4167 292.676 40.3099 293.848 39.0078C294.89 37.5755 296.192 36.2734 297.754 35.1016C299.317 33.7995 300.944 32.7578 302.637 31.9766C304.33 31.0651 305.827 30.6094 307.129 30.6094C307.65 31.3906 308.561 34.8411 309.863 40.9609C310.384 43.5651 310.97 46.8854 311.621 50.9219C312.403 54.8281 313.249 59.7109 314.16 65.5703C315.072 71.4297 316.048 78.3307 317.09 86.2734C318.262 94.0859 319.564 103.135 320.996 113.422C322.038 106.391 323.015 99.75 323.926 93.5C324.968 87.25 325.879 81.7161 326.66 76.8984C327.572 71.2995 328.418 66.0911 329.199 61.2734C329.59 58.2786 330.046 55.1536 330.567 51.8984C331.087 48.513 331.608 45.4531 332.129 42.7188C332.78 39.9844 333.431 37.7057 334.082 35.8828C334.863 33.9297 335.645 32.9531 336.426 32.9531C337.207 32.9531 338.379 33.1484 339.942 33.5391C341.504 33.7995 343.067 34.1901 344.629 34.7109C346.322 35.2318 347.819 35.8828 349.121 36.6641C350.423 37.3151 351.074 38.0312 351.074 38.8125C351.074 39.2031 350.684 41.1562 349.903 44.6719C349.121 48.0573 348.08 52.4193 346.778 57.7578C345.475 63.0964 343.978 69.151 342.285 75.9219C340.593 82.5625 338.835 89.3333 337.012 96.2344C335.319 103.135 333.561 109.906 331.738 116.547C329.916 123.188 328.223 129.112 326.66 134.32C325.228 139.398 323.991 143.565 322.949 146.82C321.908 149.945 321.192 151.508 320.801 151.508C320.41 151.508 319.304 149.75 317.481 146.234C315.788 142.589 314.225 137.706 312.793 131.586Z"/>
<path d="M395.606 49.1641C396.517 49.9453 397.363 51.4427 398.145 53.6562C399.056 55.8698 399.837 58.5391 400.488 61.6641C401.14 64.7891 401.725 68.1745 402.246 71.8203C402.767 75.4661 403.223 79.0469 403.613 82.5625C404.004 86.0781 404.265 89.3984 404.395 92.5234C404.655 95.5182 404.85 97.9922 404.981 99.9453C405.111 102.289 405.176 104.763 405.176 107.367C405.306 109.841 405.306 112.25 405.176 114.594C405.176 116.807 405.046 118.826 404.785 120.648C404.655 122.471 404.395 123.839 404.004 124.75C403.223 126.703 401.856 128.07 399.903 128.852C398.08 129.503 395.996 129.958 393.653 130.219C392.481 130.349 390.462 130.414 387.598 130.414C384.863 130.284 381.869 130.154 378.613 130.023C375.488 129.763 372.494 129.503 369.629 129.242C366.765 128.982 364.616 128.721 363.184 128.461C360.319 127.81 358.236 126.964 356.934 125.922C355.762 124.88 354.59 123.383 353.418 121.43C353.028 120.648 352.702 118.695 352.442 115.57C352.181 112.315 351.986 108.474 351.856 104.047C351.856 99.4896 351.921 94.6068 352.051 89.3984C352.181 84.1901 352.377 79.2422 352.637 74.5547C353.028 69.8672 353.418 65.7656 353.809 62.25C354.33 58.7344 354.981 56.3906 355.762 55.2188C357.064 53.3958 359.278 51.7031 362.403 50.1406C365.658 48.5781 368.587 47.3411 371.192 46.4297C372.494 46.0391 374.186 45.7786 376.27 45.6484C378.483 45.388 380.762 45.388 383.106 45.6484C385.58 45.7786 387.923 46.1693 390.137 46.8203C392.35 47.3411 394.173 48.1224 395.606 49.1641ZM384.668 109.711C384.929 109.19 385.189 107.628 385.449 105.023C385.84 102.289 386.1 99.0339 386.231 95.2578C386.491 91.4818 386.621 87.4453 386.621 83.1484C386.752 78.8516 386.817 74.8802 386.817 71.2344C386.817 67.5885 386.686 64.5286 386.426 62.0547C386.166 59.4505 385.84 57.9531 385.449 57.5625C384.798 57.0417 383.822 56.8464 382.52 56.9766C381.348 56.9766 380.111 57.1719 378.809 57.5625C377.507 57.8229 376.335 58.2135 375.293 58.7344C374.252 59.125 373.535 59.5156 373.145 59.9062C371.452 61.3385 370.541 63.6823 370.41 66.9375C370.41 67.849 370.28 70.4531 370.02 74.75C369.89 78.9167 369.824 83.474 369.824 88.4219C369.824 93.2396 369.89 97.7318 370.02 101.898C370.28 106.065 370.736 108.604 371.387 109.516C372.038 110.427 372.949 111.143 374.121 111.664C375.423 112.055 376.725 112.25 378.028 112.25C379.46 112.25 380.762 112.055 381.934 111.664C383.236 111.143 384.147 110.492 384.668 109.711Z"/>
<path d="M458.106 49.5547C459.147 50.2057 460.124 51.5078 461.035 53.4609C462.077 55.2839 462.988 57.4323 463.77 59.9062C464.681 62.25 465.397 64.7891 465.918 67.5234C466.569 70.2578 467.09 72.7969 467.481 75.1406C468.002 77.4844 468.327 79.5026 468.457 81.1953C468.587 82.7578 468.587 83.7344 468.457 84.125C468.197 84.6458 467.416 85.1667 466.113 85.6875C464.942 86.2083 463.184 86.7943 460.84 87.4453C458.496 88.0964 455.241 88.8125 451.074 89.5938C450.814 82.4323 450.293 77.0286 449.512 73.3828C448.731 69.6068 447.884 66.9375 446.973 65.375C445.931 63.5521 444.824 62.6406 443.653 62.6406C442.481 63.1615 441.439 63.8125 440.528 64.5938C439.616 65.2448 438.835 65.9609 438.184 66.7422C437.403 67.6536 436.686 68.6302 436.035 69.6719C435.775 70.0625 435.515 70.974 435.254 72.4062C434.994 73.8385 434.733 75.987 434.473 78.8516C434.473 79.763 434.408 81.651 434.278 84.5156C434.278 87.3802 434.212 90.7005 434.082 94.4766C434.082 98.2526 434.017 102.224 433.887 106.391C433.887 110.557 433.822 114.464 433.692 118.109C433.692 121.625 433.627 124.62 433.496 127.094C433.496 129.568 433.431 131 433.301 131.391C433.041 132.042 432.39 132.953 431.348 134.125C430.306 135.297 429.134 136.404 427.832 137.445C426.53 138.357 425.293 139.138 424.121 139.789C422.949 140.31 422.168 140.245 421.778 139.594C421.387 139.203 420.996 137.51 420.606 134.516C420.215 131.521 419.759 127.875 419.238 123.578C418.848 119.151 418.392 114.333 417.871 109.125C417.35 103.917 416.895 98.9036 416.504 94.0859C416.113 89.2682 415.788 84.9714 415.528 81.1953C415.267 77.2891 415.072 74.4896 414.942 72.7969C414.811 70.3229 414.681 67.5885 414.551 64.5938C414.421 61.599 414.291 58.7995 414.16 56.1953C414.16 53.4609 414.16 51.1172 414.16 49.1641C414.291 47.0807 414.551 45.8438 414.942 45.4531C415.202 45.0625 416.048 44.9974 417.481 45.2578C419.043 45.388 420.671 45.7786 422.363 46.4297C424.186 46.9505 425.879 47.6667 427.442 48.5781C429.004 49.4896 430.046 50.3359 430.567 51.1172C430.957 51.7682 431.348 52.7448 431.738 54.0469C434.212 52.7448 436.556 51.5729 438.77 50.5312C441.113 49.3594 443.327 48.513 445.41 47.9922C447.624 47.4714 449.772 47.3411 451.856 47.6016C453.939 47.7318 456.022 48.3828 458.106 49.5547Z"/>
</mask>
<path d="M80.7619 37.8359C80.8921 39.7891 80.6317 42.7188 79.9807 46.625C79.4598 50.5312 78.5484 54.4375 77.2463 58.3438C75.9442 62.25 74.2515 65.7005 72.1682 68.6953C70.2151 71.5599 67.9364 72.9922 65.3322 72.9922C64.0302 72.9922 62.9234 72.2109 62.0119 70.6484C61.1005 69.0859 60.3192 67.0677 59.6682 64.5938C59.0171 62.1198 58.4963 59.3854 58.1057 56.3906C57.7151 53.2656 57.3244 50.2708 56.9338 47.4062C56.6734 44.5417 56.413 41.9375 56.1526 39.5938C56.0224 37.1198 55.8921 35.2969 55.7619 34.125C55.2411 33.3438 54.2645 32.5625 52.8322 31.7812C51.5302 30.8698 50.3583 30.4141 49.3166 30.4141C48.1447 30.4141 46.7125 31.5208 45.0197 33.7344C43.4572 35.9479 41.9599 38.5521 40.5276 41.5469C39.0953 44.5417 37.9234 47.5365 37.0119 50.5312C36.1005 53.3958 35.7099 55.6094 35.8401 57.1719C35.8401 58.2135 36.8166 60.0365 38.7697 62.6406C40.8531 65.2448 43.3921 68.3047 46.3869 71.8203C49.3817 75.3359 52.6369 79.1771 56.1526 83.3438C59.6682 87.3802 62.9234 91.4167 65.9182 95.4531C68.913 99.4896 71.452 103.331 73.5354 106.977C75.6187 110.622 76.7255 113.747 76.8557 116.352C77.1161 119.477 76.4 123.513 74.7072 128.461C73.1447 133.279 71.1265 137.966 68.6526 142.523C66.1786 147.081 63.5093 151.052 60.6447 154.438C57.9104 157.693 55.4364 159.385 53.2229 159.516C51.7906 159.646 49.9026 158.995 47.5588 157.562C45.2151 156.26 42.676 154.503 39.9416 152.289C37.2072 150.076 34.4078 147.667 31.5432 145.062C28.8088 142.328 26.2046 139.659 23.7307 137.055C21.3869 134.451 19.3687 132.107 17.676 130.023C16.1135 127.81 15.202 126.182 14.9416 125.141C14.4208 123.578 14.0953 121.495 13.9651 118.891C13.9651 116.156 14.0953 113.552 14.3557 111.078C14.7463 108.474 15.202 106.26 15.7229 104.438C16.3739 102.484 17.1552 101.508 18.0666 101.508C18.7177 101.508 19.7593 102.354 21.1916 104.047C22.7541 105.74 24.5119 107.888 26.4651 110.492C28.4182 113.096 30.5015 115.961 32.7151 119.086C35.0588 122.081 37.2724 124.88 39.3557 127.484C41.439 130.089 43.327 132.302 45.0197 134.125C46.7125 135.818 48.0796 136.599 49.1213 136.469C49.9026 136.469 50.7489 135.883 51.6604 134.711C52.5718 133.409 53.4182 131.911 54.1994 130.219C54.9807 128.396 55.6317 126.573 56.1526 124.75C56.6734 122.927 56.9338 121.495 56.9338 120.453C56.8036 118.891 55.5015 116.677 53.0276 113.812C50.6838 110.818 47.689 107.497 44.0432 103.852C40.5276 100.076 36.6864 96.1693 32.5197 92.1328C28.4833 88.0964 24.6421 84.2552 20.9963 80.6094C17.4807 76.8333 14.4859 73.4479 12.0119 70.4531C9.66819 67.4583 8.43121 65.1797 8.301 63.6172C8.17079 62.0547 8.62652 59.6458 9.66819 56.3906C10.7099 53.0052 12.077 49.2292 13.7697 45.0625C15.5927 40.8958 17.6109 36.6641 19.8244 32.3672C22.038 28.0703 24.3166 24.099 26.6604 20.4531C29.0041 16.8073 31.2828 13.8776 33.4963 11.6641C35.7099 9.32031 37.663 8.14844 39.3557 8.14844C41.5692 8.14844 44.1083 8.66927 46.9729 9.71094C49.8375 10.6224 52.7671 11.9245 55.7619 13.6172C58.8869 15.1797 61.8817 17.0026 64.7463 19.0859C67.7411 21.1693 70.4104 23.3177 72.7541 25.5312C75.0979 27.6146 76.9859 29.763 78.4182 31.9766C79.8505 34.0599 80.6317 36.013 80.7619 37.8359Z" fill="url(#paint0_linear_117_2777)"/>
<path d="M132.91 51.5078C133.171 51.8984 133.561 53.7214 134.082 56.9766C134.603 60.2318 135.124 64.2682 135.645 69.0859C136.296 73.9036 136.882 79.112 137.403 84.7109C138.054 90.3099 138.64 95.6484 139.16 100.727C139.811 105.805 140.332 110.362 140.723 114.398C141.113 118.435 141.439 121.169 141.699 122.602C142.09 124.945 142.546 127.549 143.067 130.414C143.587 133.148 144.043 135.818 144.434 138.422C144.824 140.896 145.085 143.044 145.215 144.867C145.475 146.69 145.41 147.797 145.02 148.188C144.759 148.578 143.718 148.708 141.895 148.578C140.072 148.318 138.054 147.927 135.84 147.406C133.757 146.755 131.738 146.039 129.785 145.258C127.962 144.346 126.791 143.5 126.27 142.719C125.749 142.068 125.228 141.091 124.707 139.789C124.317 138.487 123.796 136.208 123.145 132.953C121.712 134.906 120.15 136.99 118.457 139.203C116.895 141.286 115.332 143.24 113.77 145.062C112.207 146.755 110.775 148.122 109.473 149.164C108.171 150.206 107.194 150.727 106.543 150.727C105.502 150.727 103.939 149.685 101.856 147.602C99.7723 145.388 97.689 142.914 95.6057 140.18C93.5223 137.445 91.6343 134.841 89.9416 132.367C88.2489 129.893 87.3375 128.266 87.2072 127.484C86.9468 126.703 86.8166 124.555 86.8166 121.039C86.9468 117.523 87.077 113.617 87.2072 109.32C87.4677 104.893 87.7281 100.531 87.9885 96.2344C88.2489 91.8073 88.5093 88.2917 88.7697 85.6875C89.0302 83.0833 89.2906 80.2188 89.551 77.0938C89.9416 73.8385 90.3322 70.8438 90.7229 68.1094C91.1135 65.2448 91.439 62.7708 91.6994 60.6875C92.0901 58.6042 92.4156 57.3672 92.676 56.9766C92.9364 56.5859 93.6526 56.3906 94.8244 56.3906C96.1265 56.2604 97.4286 56.3255 98.7307 56.5859C100.163 56.7161 101.465 57.0417 102.637 57.5625C103.809 57.9531 104.59 58.474 104.981 59.125C105.241 59.6458 105.371 61.3385 105.371 64.2031C105.502 66.9375 105.567 70.3229 105.567 74.3594C105.567 78.2656 105.567 82.5625 105.567 87.25C105.567 91.8073 105.502 96.1042 105.371 100.141C105.371 104.047 105.306 107.432 105.176 110.297C105.176 113.031 105.176 114.659 105.176 115.18C105.176 116.221 105.762 118.24 106.934 121.234C108.236 124.229 109.538 127.094 110.84 129.828L120.996 117.719C120.866 115.375 120.736 112.38 120.606 108.734C120.606 105.089 120.541 101.247 120.41 97.2109C120.28 93.1745 120.15 89.0729 120.02 84.9062C119.89 80.7396 119.824 76.9635 119.824 73.5781C119.824 70.1927 119.824 67.3932 119.824 65.1797C119.824 62.9661 119.89 61.6641 120.02 61.2734C120.41 60.4922 121.192 59.4505 122.363 58.1484C123.535 56.8464 124.837 55.6094 126.27 54.4375C127.702 53.2656 129.004 52.3542 130.176 51.7031C131.478 51.0521 132.39 50.987 132.91 51.5078Z" fill="url(#paint1_linear_117_2777)"/>
<path d="M195.41 49.5547C196.452 50.2057 197.429 51.5078 198.34 53.4609C199.382 55.2839 200.293 57.4323 201.074 59.9062C201.986 62.25 202.702 64.7891 203.223 67.5234C203.874 70.2578 204.395 72.7969 204.785 75.1406C205.306 77.4844 205.632 79.5026 205.762 81.1953C205.892 82.7578 205.892 83.7344 205.762 84.125C205.502 84.6458 204.72 85.1667 203.418 85.6875C202.246 86.2083 200.488 86.7943 198.145 87.4453C195.801 88.0964 192.546 88.8125 188.379 89.5938C188.119 82.4323 187.598 77.0286 186.817 73.3828C186.035 69.6068 185.189 66.9375 184.278 65.375C183.236 63.5521 182.129 62.6406 180.957 62.6406C179.785 63.1615 178.744 63.8125 177.832 64.5938C176.921 65.2448 176.14 65.9609 175.488 66.7422C174.707 67.6536 173.991 68.6302 173.34 69.6719C173.08 70.0625 172.819 70.974 172.559 72.4062C172.298 73.8385 172.038 75.987 171.778 78.8516C171.778 79.763 171.712 81.651 171.582 84.5156C171.582 87.3802 171.517 90.7005 171.387 94.4766C171.387 98.2526 171.322 102.224 171.192 106.391C171.192 110.557 171.127 114.464 170.996 118.109C170.996 121.625 170.931 124.62 170.801 127.094C170.801 129.568 170.736 131 170.606 131.391C170.345 132.042 169.694 132.953 168.653 134.125C167.611 135.297 166.439 136.404 165.137 137.445C163.835 138.357 162.598 139.138 161.426 139.789C160.254 140.31 159.473 140.245 159.082 139.594C158.692 139.203 158.301 137.51 157.91 134.516C157.52 131.521 157.064 127.875 156.543 123.578C156.153 119.151 155.697 114.333 155.176 109.125C154.655 103.917 154.199 98.9036 153.809 94.0859C153.418 89.2682 153.093 84.9714 152.832 81.1953C152.572 77.2891 152.377 74.4896 152.246 72.7969C152.116 70.3229 151.986 67.5885 151.856 64.5938C151.725 61.599 151.595 58.7995 151.465 56.1953C151.465 53.4609 151.465 51.1172 151.465 49.1641C151.595 47.0807 151.856 45.8438 152.246 45.4531C152.507 45.0625 153.353 44.9974 154.785 45.2578C156.348 45.388 157.975 45.7786 159.668 46.4297C161.491 46.9505 163.184 47.6667 164.746 48.5781C166.309 49.4896 167.35 50.3359 167.871 51.1172C168.262 51.7682 168.653 52.7448 169.043 54.0469C171.517 52.7448 173.861 51.5729 176.074 50.5312C178.418 49.3594 180.632 48.513 182.715 47.9922C184.929 47.4714 187.077 47.3411 189.16 47.6016C191.244 47.7318 193.327 48.3828 195.41 49.5547Z" fill="url(#paint2_linear_117_2777)"/>
<path d="M224.707 131.586C222.884 124.945 220.866 117.133 218.653 108.148C216.83 100.466 214.616 91.1562 212.012 80.2188C209.538 69.151 206.869 56.5208 204.004 42.3281C204.004 41.4167 204.59 40.3099 205.762 39.0078C206.804 37.5755 208.106 36.2734 209.668 35.1016C211.231 33.7995 212.858 32.7578 214.551 31.9766C216.244 31.0651 217.741 30.6094 219.043 30.6094C219.564 31.3906 220.475 34.8411 221.778 40.9609C222.298 43.5651 222.884 46.8854 223.535 50.9219C224.317 54.8281 225.163 59.7109 226.074 65.5703C226.986 71.4297 227.962 78.3307 229.004 86.2734C230.176 94.0859 231.478 103.135 232.91 113.422C233.952 106.391 234.929 99.75 235.84 93.5C236.882 87.25 237.793 81.7161 238.574 76.8984C239.486 71.2995 240.332 66.0911 241.113 61.2734C241.504 58.2786 241.96 55.1536 242.481 51.8984C243.002 48.513 243.522 45.4531 244.043 42.7188C244.694 39.9844 245.345 37.7057 245.996 35.8828C246.778 33.9297 247.559 32.9531 248.34 32.9531C249.121 32.9531 250.293 33.1484 251.856 33.5391C253.418 33.7995 254.981 34.1901 256.543 34.7109C258.236 35.2318 259.733 35.8828 261.035 36.6641C262.337 37.3151 262.988 38.0312 262.988 38.8125C262.988 39.2031 262.598 41.1562 261.817 44.6719C261.035 48.0573 259.994 52.4193 258.692 57.7578C257.39 63.0964 255.892 69.151 254.199 75.9219C252.507 82.5625 250.749 89.3333 248.926 96.2344C247.233 103.135 245.475 109.906 243.653 116.547C241.83 123.188 240.137 129.112 238.574 134.32C237.142 139.398 235.905 143.565 234.863 146.82C233.822 149.945 233.106 151.508 232.715 151.508C232.324 151.508 231.218 149.75 229.395 146.234C227.702 142.589 226.14 137.706 224.707 131.586Z" fill="url(#paint3_linear_117_2777)"/>
<path d="M285.449 72.0156C285.71 72.6667 285.84 74.75 285.84 78.2656C285.97 81.651 285.97 85.8177 285.84 90.7656C285.84 95.5833 285.71 100.792 285.449 106.391C285.189 111.859 284.863 117.068 284.473 122.016C284.212 126.833 283.887 131 283.496 134.516C283.106 137.901 282.715 139.919 282.324 140.57C281.153 142.393 279.395 143.565 277.051 144.086C274.707 144.477 273.015 144.542 271.973 144.281C271.452 144.281 270.866 142.784 270.215 139.789C269.694 136.794 269.173 133.018 268.653 128.461C268.132 123.904 267.676 118.956 267.285 113.617C266.895 108.279 266.569 103.201 266.309 98.3828C266.048 93.4349 265.918 89.138 265.918 85.4922C265.918 81.8464 266.048 79.5026 266.309 78.4609C266.699 76.7682 267.806 75.2708 269.629 73.9688C271.582 72.6667 273.6 71.6901 275.684 71.0391C277.897 70.388 279.916 70.1276 281.738 70.2578C283.692 70.2578 284.929 70.8438 285.449 72.0156ZM286.426 40.375C286.947 41.4167 287.142 42.849 287.012 44.6719C287.012 46.4948 286.817 48.3828 286.426 50.3359C286.035 52.2891 285.515 54.1771 284.863 56C284.212 57.8229 283.561 59.2552 282.91 60.2969C281.608 62.1198 279.655 63.2917 277.051 63.8125C274.577 64.2031 272.754 64.2682 271.582 64.0078C270.671 63.8776 269.759 63.2917 268.848 62.25C267.936 61.0781 267.155 59.7109 266.504 58.1484C265.853 56.4557 265.397 54.6328 265.137 52.6797C264.877 50.7266 264.942 48.9036 265.332 47.2109C265.723 45.5182 266.96 44.0208 269.043 42.7188C271.127 41.2865 273.34 40.2448 275.684 39.5938C278.028 38.8125 280.241 38.487 282.324 38.6172C284.408 38.6172 285.775 39.2031 286.426 40.375Z" fill="url(#paint4_linear_117_2777)"/>
<path d="M312.793 131.586C310.97 124.945 308.952 117.133 306.738 108.148C304.916 100.466 302.702 91.1562 300.098 80.2188C297.624 69.151 294.955 56.5208 292.09 42.3281C292.09 41.4167 292.676 40.3099 293.848 39.0078C294.89 37.5755 296.192 36.2734 297.754 35.1016C299.317 33.7995 300.944 32.7578 302.637 31.9766C304.33 31.0651 305.827 30.6094 307.129 30.6094C307.65 31.3906 308.561 34.8411 309.863 40.9609C310.384 43.5651 310.97 46.8854 311.621 50.9219C312.403 54.8281 313.249 59.7109 314.16 65.5703C315.072 71.4297 316.048 78.3307 317.09 86.2734C318.262 94.0859 319.564 103.135 320.996 113.422C322.038 106.391 323.015 99.75 323.926 93.5C324.968 87.25 325.879 81.7161 326.66 76.8984C327.572 71.2995 328.418 66.0911 329.199 61.2734C329.59 58.2786 330.046 55.1536 330.567 51.8984C331.087 48.513 331.608 45.4531 332.129 42.7188C332.78 39.9844 333.431 37.7057 334.082 35.8828C334.863 33.9297 335.645 32.9531 336.426 32.9531C337.207 32.9531 338.379 33.1484 339.942 33.5391C341.504 33.7995 343.067 34.1901 344.629 34.7109C346.322 35.2318 347.819 35.8828 349.121 36.6641C350.423 37.3151 351.074 38.0312 351.074 38.8125C351.074 39.2031 350.684 41.1562 349.903 44.6719C349.121 48.0573 348.08 52.4193 346.778 57.7578C345.475 63.0964 343.978 69.151 342.285 75.9219C340.593 82.5625 338.835 89.3333 337.012 96.2344C335.319 103.135 333.561 109.906 331.738 116.547C329.916 123.188 328.223 129.112 326.66 134.32C325.228 139.398 323.991 143.565 322.949 146.82C321.908 149.945 321.192 151.508 320.801 151.508C320.41 151.508 319.304 149.75 317.481 146.234C315.788 142.589 314.225 137.706 312.793 131.586Z" fill="url(#paint5_linear_117_2777)"/>
<path d="M395.606 49.1641C396.517 49.9453 397.363 51.4427 398.145 53.6562C399.056 55.8698 399.837 58.5391 400.488 61.6641C401.14 64.7891 401.725 68.1745 402.246 71.8203C402.767 75.4661 403.223 79.0469 403.613 82.5625C404.004 86.0781 404.265 89.3984 404.395 92.5234C404.655 95.5182 404.85 97.9922 404.981 99.9453C405.111 102.289 405.176 104.763 405.176 107.367C405.306 109.841 405.306 112.25 405.176 114.594C405.176 116.807 405.046 118.826 404.785 120.648C404.655 122.471 404.395 123.839 404.004 124.75C403.223 126.703 401.856 128.07 399.903 128.852C398.08 129.503 395.996 129.958 393.653 130.219C392.481 130.349 390.462 130.414 387.598 130.414C384.863 130.284 381.869 130.154 378.613 130.023C375.488 129.763 372.494 129.503 369.629 129.242C366.765 128.982 364.616 128.721 363.184 128.461C360.319 127.81 358.236 126.964 356.934 125.922C355.762 124.88 354.59 123.383 353.418 121.43C353.028 120.648 352.702 118.695 352.442 115.57C352.181 112.315 351.986 108.474 351.856 104.047C351.856 99.4896 351.921 94.6068 352.051 89.3984C352.181 84.1901 352.377 79.2422 352.637 74.5547C353.028 69.8672 353.418 65.7656 353.809 62.25C354.33 58.7344 354.981 56.3906 355.762 55.2188C357.064 53.3958 359.278 51.7031 362.403 50.1406C365.658 48.5781 368.587 47.3411 371.192 46.4297C372.494 46.0391 374.186 45.7786 376.27 45.6484C378.483 45.388 380.762 45.388 383.106 45.6484C385.58 45.7786 387.923 46.1693 390.137 46.8203C392.35 47.3411 394.173 48.1224 395.606 49.1641ZM384.668 109.711C384.929 109.19 385.189 107.628 385.449 105.023C385.84 102.289 386.1 99.0339 386.231 95.2578C386.491 91.4818 386.621 87.4453 386.621 83.1484C386.752 78.8516 386.817 74.8802 386.817 71.2344C386.817 67.5885 386.686 64.5286 386.426 62.0547C386.166 59.4505 385.84 57.9531 385.449 57.5625C384.798 57.0417 383.822 56.8464 382.52 56.9766C381.348 56.9766 380.111 57.1719 378.809 57.5625C377.507 57.8229 376.335 58.2135 375.293 58.7344C374.252 59.125 373.535 59.5156 373.145 59.9062C371.452 61.3385 370.541 63.6823 370.41 66.9375C370.41 67.849 370.28 70.4531 370.02 74.75C369.89 78.9167 369.824 83.474 369.824 88.4219C369.824 93.2396 369.89 97.7318 370.02 101.898C370.28 106.065 370.736 108.604 371.387 109.516C372.038 110.427 372.949 111.143 374.121 111.664C375.423 112.055 376.725 112.25 378.028 112.25C379.46 112.25 380.762 112.055 381.934 111.664C383.236 111.143 384.147 110.492 384.668 109.711Z" fill="url(#paint6_linear_117_2777)"/>
<path d="M458.106 49.5547C459.147 50.2057 460.124 51.5078 461.035 53.4609C462.077 55.2839 462.988 57.4323 463.77 59.9062C464.681 62.25 465.397 64.7891 465.918 67.5234C466.569 70.2578 467.09 72.7969 467.481 75.1406C468.002 77.4844 468.327 79.5026 468.457 81.1953C468.587 82.7578 468.587 83.7344 468.457 84.125C468.197 84.6458 467.416 85.1667 466.113 85.6875C464.942 86.2083 463.184 86.7943 460.84 87.4453C458.496 88.0964 455.241 88.8125 451.074 89.5938C450.814 82.4323 450.293 77.0286 449.512 73.3828C448.731 69.6068 447.884 66.9375 446.973 65.375C445.931 63.5521 444.824 62.6406 443.653 62.6406C442.481 63.1615 441.439 63.8125 440.528 64.5938C439.616 65.2448 438.835 65.9609 438.184 66.7422C437.403 67.6536 436.686 68.6302 436.035 69.6719C435.775 70.0625 435.515 70.974 435.254 72.4062C434.994 73.8385 434.733 75.987 434.473 78.8516C434.473 79.763 434.408 81.651 434.278 84.5156C434.278 87.3802 434.212 90.7005 434.082 94.4766C434.082 98.2526 434.017 102.224 433.887 106.391C433.887 110.557 433.822 114.464 433.692 118.109C433.692 121.625 433.627 124.62 433.496 127.094C433.496 129.568 433.431 131 433.301 131.391C433.041 132.042 432.39 132.953 431.348 134.125C430.306 135.297 429.134 136.404 427.832 137.445C426.53 138.357 425.293 139.138 424.121 139.789C422.949 140.31 422.168 140.245 421.778 139.594C421.387 139.203 420.996 137.51 420.606 134.516C420.215 131.521 419.759 127.875 419.238 123.578C418.848 119.151 418.392 114.333 417.871 109.125C417.35 103.917 416.895 98.9036 416.504 94.0859C416.113 89.2682 415.788 84.9714 415.528 81.1953C415.267 77.2891 415.072 74.4896 414.942 72.7969C414.811 70.3229 414.681 67.5885 414.551 64.5938C414.421 61.599 414.291 58.7995 414.16 56.1953C414.16 53.4609 414.16 51.1172 414.16 49.1641C414.291 47.0807 414.551 45.8438 414.942 45.4531C415.202 45.0625 416.048 44.9974 417.481 45.2578C419.043 45.388 420.671 45.7786 422.363 46.4297C424.186 46.9505 425.879 47.6667 427.442 48.5781C429.004 49.4896 430.046 50.3359 430.567 51.1172C430.957 51.7682 431.348 52.7448 431.738 54.0469C434.212 52.7448 436.556 51.5729 438.77 50.5312C441.113 49.3594 443.327 48.513 445.41 47.9922C447.624 47.4714 449.772 47.3411 451.856 47.6016C453.939 47.7318 456.022 48.3828 458.106 49.5547Z" fill="url(#paint7_linear_117_2777)"/>
<path d="M80.7619 37.8359C80.8921 39.7891 80.6317 42.7188 79.9807 46.625C79.4598 50.5312 78.5484 54.4375 77.2463 58.3438C75.9442 62.25 74.2515 65.7005 72.1682 68.6953C70.2151 71.5599 67.9364 72.9922 65.3322 72.9922C64.0302 72.9922 62.9234 72.2109 62.0119 70.6484C61.1005 69.0859 60.3192 67.0677 59.6682 64.5938C59.0171 62.1198 58.4963 59.3854 58.1057 56.3906C57.7151 53.2656 57.3244 50.2708 56.9338 47.4062C56.6734 44.5417 56.413 41.9375 56.1526 39.5938C56.0224 37.1198 55.8921 35.2969 55.7619 34.125C55.2411 33.3438 54.2645 32.5625 52.8322 31.7812C51.5302 30.8698 50.3583 30.4141 49.3166 30.4141C48.1447 30.4141 46.7125 31.5208 45.0197 33.7344C43.4572 35.9479 41.9599 38.5521 40.5276 41.5469C39.0953 44.5417 37.9234 47.5365 37.0119 50.5312C36.1005 53.3958 35.7099 55.6094 35.8401 57.1719C35.8401 58.2135 36.8166 60.0365 38.7697 62.6406C40.8531 65.2448 43.3921 68.3047 46.3869 71.8203C49.3817 75.3359 52.6369 79.1771 56.1526 83.3438C59.6682 87.3802 62.9234 91.4167 65.9182 95.4531C68.913 99.4896 71.452 103.331 73.5354 106.977C75.6187 110.622 76.7255 113.747 76.8557 116.352C77.1161 119.477 76.4 123.513 74.7072 128.461C73.1447 133.279 71.1265 137.966 68.6526 142.523C66.1786 147.081 63.5093 151.052 60.6447 154.438C57.9104 157.693 55.4364 159.385 53.2229 159.516C51.7906 159.646 49.9026 158.995 47.5588 157.562C45.2151 156.26 42.676 154.503 39.9416 152.289C37.2072 150.076 34.4078 147.667 31.5432 145.062C28.8088 142.328 26.2046 139.659 23.7307 137.055C21.3869 134.451 19.3687 132.107 17.676 130.023C16.1135 127.81 15.202 126.182 14.9416 125.141C14.4208 123.578 14.0953 121.495 13.9651 118.891C13.9651 116.156 14.0953 113.552 14.3557 111.078C14.7463 108.474 15.202 106.26 15.7229 104.438C16.3739 102.484 17.1552 101.508 18.0666 101.508C18.7177 101.508 19.7593 102.354 21.1916 104.047C22.7541 105.74 24.5119 107.888 26.4651 110.492C28.4182 113.096 30.5015 115.961 32.7151 119.086C35.0588 122.081 37.2724 124.88 39.3557 127.484C41.439 130.089 43.327 132.302 45.0197 134.125C46.7125 135.818 48.0796 136.599 49.1213 136.469C49.9026 136.469 50.7489 135.883 51.6604 134.711C52.5718 133.409 53.4182 131.911 54.1994 130.219C54.9807 128.396 55.6317 126.573 56.1526 124.75C56.6734 122.927 56.9338 121.495 56.9338 120.453C56.8036 118.891 55.5015 116.677 53.0276 113.812C50.6838 110.818 47.689 107.497 44.0432 103.852C40.5276 100.076 36.6864 96.1693 32.5197 92.1328C28.4833 88.0964 24.6421 84.2552 20.9963 80.6094C17.4807 76.8333 14.4859 73.4479 12.0119 70.4531C9.66819 67.4583 8.43121 65.1797 8.301 63.6172C8.17079 62.0547 8.62652 59.6458 9.66819 56.3906C10.7099 53.0052 12.077 49.2292 13.7697 45.0625C15.5927 40.8958 17.6109 36.6641 19.8244 32.3672C22.038 28.0703 24.3166 24.099 26.6604 20.4531C29.0041 16.8073 31.2828 13.8776 33.4963 11.6641C35.7099 9.32031 37.663 8.14844 39.3557 8.14844C41.5692 8.14844 44.1083 8.66927 46.9729 9.71094C49.8375 10.6224 52.7671 11.9245 55.7619 13.6172C58.8869 15.1797 61.8817 17.0026 64.7463 19.0859C67.7411 21.1693 70.4104 23.3177 72.7541 25.5312C75.0979 27.6146 76.9859 29.763 78.4182 31.9766C79.8505 34.0599 80.6317 36.013 80.7619 37.8359Z" stroke="black" stroke-width="8" mask="url(#path-1-outside-1_117_2777)"/>
<path d="M132.91 51.5078C133.171 51.8984 133.561 53.7214 134.082 56.9766C134.603 60.2318 135.124 64.2682 135.645 69.0859C136.296 73.9036 136.882 79.112 137.403 84.7109C138.054 90.3099 138.64 95.6484 139.16 100.727C139.811 105.805 140.332 110.362 140.723 114.398C141.113 118.435 141.439 121.169 141.699 122.602C142.09 124.945 142.546 127.549 143.067 130.414C143.587 133.148 144.043 135.818 144.434 138.422C144.824 140.896 145.085 143.044 145.215 144.867C145.475 146.69 145.41 147.797 145.02 148.188C144.759 148.578 143.718 148.708 141.895 148.578C140.072 148.318 138.054 147.927 135.84 147.406C133.757 146.755 131.738 146.039 129.785 145.258C127.962 144.346 126.791 143.5 126.27 142.719C125.749 142.068 125.228 141.091 124.707 139.789C124.317 138.487 123.796 136.208 123.145 132.953C121.712 134.906 120.15 136.99 118.457 139.203C116.895 141.286 115.332 143.24 113.77 145.062C112.207 146.755 110.775 148.122 109.473 149.164C108.171 150.206 107.194 150.727 106.543 150.727C105.502 150.727 103.939 149.685 101.856 147.602C99.7723 145.388 97.689 142.914 95.6057 140.18C93.5223 137.445 91.6343 134.841 89.9416 132.367C88.2489 129.893 87.3375 128.266 87.2072 127.484C86.9468 126.703 86.8166 124.555 86.8166 121.039C86.9468 117.523 87.077 113.617 87.2072 109.32C87.4677 104.893 87.7281 100.531 87.9885 96.2344C88.2489 91.8073 88.5093 88.2917 88.7697 85.6875C89.0302 83.0833 89.2906 80.2188 89.551 77.0938C89.9416 73.8385 90.3322 70.8438 90.7229 68.1094C91.1135 65.2448 91.439 62.7708 91.6994 60.6875C92.0901 58.6042 92.4156 57.3672 92.676 56.9766C92.9364 56.5859 93.6526 56.3906 94.8244 56.3906C96.1265 56.2604 97.4286 56.3255 98.7307 56.5859C100.163 56.7161 101.465 57.0417 102.637 57.5625C103.809 57.9531 104.59 58.474 104.981 59.125C105.241 59.6458 105.371 61.3385 105.371 64.2031C105.502 66.9375 105.567 70.3229 105.567 74.3594C105.567 78.2656 105.567 82.5625 105.567 87.25C105.567 91.8073 105.502 96.1042 105.371 100.141C105.371 104.047 105.306 107.432 105.176 110.297C105.176 113.031 105.176 114.659 105.176 115.18C105.176 116.221 105.762 118.24 106.934 121.234C108.236 124.229 109.538 127.094 110.84 129.828L120.996 117.719C120.866 115.375 120.736 112.38 120.606 108.734C120.606 105.089 120.541 101.247 120.41 97.2109C120.28 93.1745 120.15 89.0729 120.02 84.9062C119.89 80.7396 119.824 76.9635 119.824 73.5781C119.824 70.1927 119.824 67.3932 119.824 65.1797C119.824 62.9661 119.89 61.6641 120.02 61.2734C120.41 60.4922 121.192 59.4505 122.363 58.1484C123.535 56.8464 124.837 55.6094 126.27 54.4375C127.702 53.2656 129.004 52.3542 130.176 51.7031C131.478 51.0521 132.39 50.987 132.91 51.5078Z" stroke="black" stroke-width="8" mask="url(#path-1-outside-1_117_2777)"/>
<path d="M195.41 49.5547C196.452 50.2057 197.429 51.5078 198.34 53.4609C199.382 55.2839 200.293 57.4323 201.074 59.9062C201.986 62.25 202.702 64.7891 203.223 67.5234C203.874 70.2578 204.395 72.7969 204.785 75.1406C205.306 77.4844 205.632 79.5026 205.762 81.1953C205.892 82.7578 205.892 83.7344 205.762 84.125C205.502 84.6458 204.72 85.1667 203.418 85.6875C202.246 86.2083 200.488 86.7943 198.145 87.4453C195.801 88.0964 192.546 88.8125 188.379 89.5938C188.119 82.4323 187.598 77.0286 186.817 73.3828C186.035 69.6068 185.189 66.9375 184.278 65.375C183.236 63.5521 182.129 62.6406 180.957 62.6406C179.785 63.1615 178.744 63.8125 177.832 64.5938C176.921 65.2448 176.14 65.9609 175.488 66.7422C174.707 67.6536 173.991 68.6302 173.34 69.6719C173.08 70.0625 172.819 70.974 172.559 72.4062C172.298 73.8385 172.038 75.987 171.778 78.8516C171.778 79.763 171.712 81.651 171.582 84.5156C171.582 87.3802 171.517 90.7005 171.387 94.4766C171.387 98.2526 171.322 102.224 171.192 106.391C171.192 110.557 171.127 114.464 170.996 118.109C170.996 121.625 170.931 124.62 170.801 127.094C170.801 129.568 170.736 131 170.606 131.391C170.345 132.042 169.694 132.953 168.653 134.125C167.611 135.297 166.439 136.404 165.137 137.445C163.835 138.357 162.598 139.138 161.426 139.789C160.254 140.31 159.473 140.245 159.082 139.594C158.692 139.203 158.301 137.51 157.91 134.516C157.52 131.521 157.064 127.875 156.543 123.578C156.153 119.151 155.697 114.333 155.176 109.125C154.655 103.917 154.199 98.9036 153.809 94.0859C153.418 89.2682 153.093 84.9714 152.832 81.1953C152.572 77.2891 152.377 74.4896 152.246 72.7969C152.116 70.3229 151.986 67.5885 151.856 64.5938C151.725 61.599 151.595 58.7995 151.465 56.1953C151.465 53.4609 151.465 51.1172 151.465 49.1641C151.595 47.0807 151.856 45.8438 152.246 45.4531C152.507 45.0625 153.353 44.9974 154.785 45.2578C156.348 45.388 157.975 45.7786 159.668 46.4297C161.491 46.9505 163.184 47.6667 164.746 48.5781C166.309 49.4896 167.35 50.3359 167.871 51.1172C168.262 51.7682 168.653 52.7448 169.043 54.0469C171.517 52.7448 173.861 51.5729 176.074 50.5312C178.418 49.3594 180.632 48.513 182.715 47.9922C184.929 47.4714 187.077 47.3411 189.16 47.6016C191.244 47.7318 193.327 48.3828 195.41 49.5547Z" stroke="black" stroke-width="8" mask="url(#path-1-outside-1_117_2777)"/>
<path d="M224.707 131.586C222.884 124.945 220.866 117.133 218.653 108.148C216.83 100.466 214.616 91.1562 212.012 80.2188C209.538 69.151 206.869 56.5208 204.004 42.3281C204.004 41.4167 204.59 40.3099 205.762 39.0078C206.804 37.5755 208.106 36.2734 209.668 35.1016C211.231 33.7995 212.858 32.7578 214.551 31.9766C216.244 31.0651 217.741 30.6094 219.043 30.6094C219.564 31.3906 220.475 34.8411 221.778 40.9609C222.298 43.5651 222.884 46.8854 223.535 50.9219C224.317 54.8281 225.163 59.7109 226.074 65.5703C226.986 71.4297 227.962 78.3307 229.004 86.2734C230.176 94.0859 231.478 103.135 232.91 113.422C233.952 106.391 234.929 99.75 235.84 93.5C236.882 87.25 237.793 81.7161 238.574 76.8984C239.486 71.2995 240.332 66.0911 241.113 61.2734C241.504 58.2786 241.96 55.1536 242.481 51.8984C243.002 48.513 243.522 45.4531 244.043 42.7188C244.694 39.9844 245.345 37.7057 245.996 35.8828C246.778 33.9297 247.559 32.9531 248.34 32.9531C249.121 32.9531 250.293 33.1484 251.856 33.5391C253.418 33.7995 254.981 34.1901 256.543 34.7109C258.236 35.2318 259.733 35.8828 261.035 36.6641C262.337 37.3151 262.988 38.0312 262.988 38.8125C262.988 39.2031 262.598 41.1562 261.817 44.6719C261.035 48.0573 259.994 52.4193 258.692 57.7578C257.39 63.0964 255.892 69.151 254.199 75.9219C252.507 82.5625 250.749 89.3333 248.926 96.2344C247.233 103.135 245.475 109.906 243.653 116.547C241.83 123.188 240.137 129.112 238.574 134.32C237.142 139.398 235.905 143.565 234.863 146.82C233.822 149.945 233.106 151.508 232.715 151.508C232.324 151.508 231.218 149.75 229.395 146.234C227.702 142.589 226.14 137.706 224.707 131.586Z" stroke="black" stroke-width="8" mask="url(#path-1-outside-1_117_2777)"/>
<path d="M285.449 72.0156C285.71 72.6667 285.84 74.75 285.84 78.2656C285.97 81.651 285.97 85.8177 285.84 90.7656C285.84 95.5833 285.71 100.792 285.449 106.391C285.189 111.859 284.863 117.068 284.473 122.016C284.212 126.833 283.887 131 283.496 134.516C283.106 137.901 282.715 139.919 282.324 140.57C281.153 142.393 279.395 143.565 277.051 144.086C274.707 144.477 273.015 144.542 271.973 144.281C271.452 144.281 270.866 142.784 270.215 139.789C269.694 136.794 269.173 133.018 268.653 128.461C268.132 123.904 267.676 118.956 267.285 113.617C266.895 108.279 266.569 103.201 266.309 98.3828C266.048 93.4349 265.918 89.138 265.918 85.4922C265.918 81.8464 266.048 79.5026 266.309 78.4609C266.699 76.7682 267.806 75.2708 269.629 73.9688C271.582 72.6667 273.6 71.6901 275.684 71.0391C277.897 70.388 279.916 70.1276 281.738 70.2578C283.692 70.2578 284.929 70.8438 285.449 72.0156ZM286.426 40.375C286.947 41.4167 287.142 42.849 287.012 44.6719C287.012 46.4948 286.817 48.3828 286.426 50.3359C286.035 52.2891 285.515 54.1771 284.863 56C284.212 57.8229 283.561 59.2552 282.91 60.2969C281.608 62.1198 279.655 63.2917 277.051 63.8125C274.577 64.2031 272.754 64.2682 271.582 64.0078C270.671 63.8776 269.759 63.2917 268.848 62.25C267.936 61.0781 267.155 59.7109 266.504 58.1484C265.853 56.4557 265.397 54.6328 265.137 52.6797C264.877 50.7266 264.942 48.9036 265.332 47.2109C265.723 45.5182 266.96 44.0208 269.043 42.7188C271.127 41.2865 273.34 40.2448 275.684 39.5938C278.028 38.8125 280.241 38.487 282.324 38.6172C284.408 38.6172 285.775 39.2031 286.426 40.375Z" stroke="black" stroke-width="8" mask="url(#path-1-outside-1_117_2777)"/>
<path d="M312.793 131.586C310.97 124.945 308.952 117.133 306.738 108.148C304.916 100.466 302.702 91.1562 300.098 80.2188C297.624 69.151 294.955 56.5208 292.09 42.3281C292.09 41.4167 292.676 40.3099 293.848 39.0078C294.89 37.5755 296.192 36.2734 297.754 35.1016C299.317 33.7995 300.944 32.7578 302.637 31.9766C304.33 31.0651 305.827 30.6094 307.129 30.6094C307.65 31.3906 308.561 34.8411 309.863 40.9609C310.384 43.5651 310.97 46.8854 311.621 50.9219C312.403 54.8281 313.249 59.7109 314.16 65.5703C315.072 71.4297 316.048 78.3307 317.09 86.2734C318.262 94.0859 319.564 103.135 320.996 113.422C322.038 106.391 323.015 99.75 323.926 93.5C324.968 87.25 325.879 81.7161 326.66 76.8984C327.572 71.2995 328.418 66.0911 329.199 61.2734C329.59 58.2786 330.046 55.1536 330.567 51.8984C331.087 48.513 331.608 45.4531 332.129 42.7188C332.78 39.9844 333.431 37.7057 334.082 35.8828C334.863 33.9297 335.645 32.9531 336.426 32.9531C337.207 32.9531 338.379 33.1484 339.942 33.5391C341.504 33.7995 343.067 34.1901 344.629 34.7109C346.322 35.2318 347.819 35.8828 349.121 36.6641C350.423 37.3151 351.074 38.0312 351.074 38.8125C351.074 39.2031 350.684 41.1562 349.903 44.6719C349.121 48.0573 348.08 52.4193 346.778 57.7578C345.475 63.0964 343.978 69.151 342.285 75.9219C340.593 82.5625 338.835 89.3333 337.012 96.2344C335.319 103.135 333.561 109.906 331.738 116.547C329.916 123.188 328.223 129.112 326.66 134.32C325.228 139.398 323.991 143.565 322.949 146.82C321.908 149.945 321.192 151.508 320.801 151.508C320.41 151.508 319.304 149.75 317.481 146.234C315.788 142.589 314.225 137.706 312.793 131.586Z" stroke="black" stroke-width="8" mask="url(#path-1-outside-1_117_2777)"/>
<path d="M395.606 49.1641C396.517 49.9453 397.363 51.4427 398.145 53.6562C399.056 55.8698 399.837 58.5391 400.488 61.6641C401.14 64.7891 401.725 68.1745 402.246 71.8203C402.767 75.4661 403.223 79.0469 403.613 82.5625C404.004 86.0781 404.265 89.3984 404.395 92.5234C404.655 95.5182 404.85 97.9922 404.981 99.9453C405.111 102.289 405.176 104.763 405.176 107.367C405.306 109.841 405.306 112.25 405.176 114.594C405.176 116.807 405.046 118.826 404.785 120.648C404.655 122.471 404.395 123.839 404.004 124.75C403.223 126.703 401.856 128.07 399.903 128.852C398.08 129.503 395.996 129.958 393.653 130.219C392.481 130.349 390.462 130.414 387.598 130.414C384.863 130.284 381.869 130.154 378.613 130.023C375.488 129.763 372.494 129.503 369.629 129.242C366.765 128.982 364.616 128.721 363.184 128.461C360.319 127.81 358.236 126.964 356.934 125.922C355.762 124.88 354.59 123.383 353.418 121.43C353.028 120.648 352.702 118.695 352.442 115.57C352.181 112.315 351.986 108.474 351.856 104.047C351.856 99.4896 351.921 94.6068 352.051 89.3984C352.181 84.1901 352.377 79.2422 352.637 74.5547C353.028 69.8672 353.418 65.7656 353.809 62.25C354.33 58.7344 354.981 56.3906 355.762 55.2188C357.064 53.3958 359.278 51.7031 362.403 50.1406C365.658 48.5781 368.587 47.3411 371.192 46.4297C372.494 46.0391 374.186 45.7786 376.27 45.6484C378.483 45.388 380.762 45.388 383.106 45.6484C385.58 45.7786 387.923 46.1693 390.137 46.8203C392.35 47.3411 394.173 48.1224 395.606 49.1641ZM384.668 109.711C384.929 109.19 385.189 107.628 385.449 105.023C385.84 102.289 386.1 99.0339 386.231 95.2578C386.491 91.4818 386.621 87.4453 386.621 83.1484C386.752 78.8516 386.817 74.8802 386.817 71.2344C386.817 67.5885 386.686 64.5286 386.426 62.0547C386.166 59.4505 385.84 57.9531 385.449 57.5625C384.798 57.0417 383.822 56.8464 382.52 56.9766C381.348 56.9766 380.111 57.1719 378.809 57.5625C377.507 57.8229 376.335 58.2135 375.293 58.7344C374.252 59.125 373.535 59.5156 373.145 59.9062C371.452 61.3385 370.541 63.6823 370.41 66.9375C370.41 67.849 370.28 70.4531 370.02 74.75C369.89 78.9167 369.824 83.474 369.824 88.4219C369.824 93.2396 369.89 97.7318 370.02 101.898C370.28 106.065 370.736 108.604 371.387 109.516C372.038 110.427 372.949 111.143 374.121 111.664C375.423 112.055 376.725 112.25 378.028 112.25C379.46 112.25 380.762 112.055 381.934 111.664C383.236 111.143 384.147 110.492 384.668 109.711Z" stroke="black" stroke-width="8" mask="url(#path-1-outside-1_117_2777)"/>
<path d="M458.106 49.5547C459.147 50.2057 460.124 51.5078 461.035 53.4609C462.077 55.2839 462.988 57.4323 463.77 59.9062C464.681 62.25 465.397 64.7891 465.918 67.5234C466.569 70.2578 467.09 72.7969 467.481 75.1406C468.002 77.4844 468.327 79.5026 468.457 81.1953C468.587 82.7578 468.587 83.7344 468.457 84.125C468.197 84.6458 467.416 85.1667 466.113 85.6875C464.942 86.2083 463.184 86.7943 460.84 87.4453C458.496 88.0964 455.241 88.8125 451.074 89.5938C450.814 82.4323 450.293 77.0286 449.512 73.3828C448.731 69.6068 447.884 66.9375 446.973 65.375C445.931 63.5521 444.824 62.6406 443.653 62.6406C442.481 63.1615 441.439 63.8125 440.528 64.5938C439.616 65.2448 438.835 65.9609 438.184 66.7422C437.403 67.6536 436.686 68.6302 436.035 69.6719C435.775 70.0625 435.515 70.974 435.254 72.4062C434.994 73.8385 434.733 75.987 434.473 78.8516C434.473 79.763 434.408 81.651 434.278 84.5156C434.278 87.3802 434.212 90.7005 434.082 94.4766C434.082 98.2526 434.017 102.224 433.887 106.391C433.887 110.557 433.822 114.464 433.692 118.109C433.692 121.625 433.627 124.62 433.496 127.094C433.496 129.568 433.431 131 433.301 131.391C433.041 132.042 432.39 132.953 431.348 134.125C430.306 135.297 429.134 136.404 427.832 137.445C426.53 138.357 425.293 139.138 424.121 139.789C422.949 140.31 422.168 140.245 421.778 139.594C421.387 139.203 420.996 137.51 420.606 134.516C420.215 131.521 419.759 127.875 419.238 123.578C418.848 119.151 418.392 114.333 417.871 109.125C417.35 103.917 416.895 98.9036 416.504 94.0859C416.113 89.2682 415.788 84.9714 415.528 81.1953C415.267 77.2891 415.072 74.4896 414.942 72.7969C414.811 70.3229 414.681 67.5885 414.551 64.5938C414.421 61.599 414.291 58.7995 414.16 56.1953C414.16 53.4609 414.16 51.1172 414.16 49.1641C414.291 47.0807 414.551 45.8438 414.942 45.4531C415.202 45.0625 416.048 44.9974 417.481 45.2578C419.043 45.388 420.671 45.7786 422.363 46.4297C424.186 46.9505 425.879 47.6667 427.442 48.5781C429.004 49.4896 430.046 50.3359 430.567 51.1172C430.957 51.7682 431.348 52.7448 431.738 54.0469C434.212 52.7448 436.556 51.5729 438.77 50.5312C441.113 49.3594 443.327 48.513 445.41 47.9922C447.624 47.4714 449.772 47.3411 451.856 47.6016C453.939 47.7318 456.022 48.3828 458.106 49.5547Z" stroke="black" stroke-width="8" mask="url(#path-1-outside-1_117_2777)"/>
<defs>
<linearGradient id="paint0_linear_117_2777" x1="238.149" y1="184.762" x2="238.149" y2="83.8402" gradientUnits="userSpaceOnUse">
<stop stop-color="#263346"/>
<stop offset="1" stop-color="white"/>
</linearGradient>
<linearGradient id="paint1_linear_117_2777" x1="238.149" y1="184.762" x2="238.149" y2="83.8402" gradientUnits="userSpaceOnUse">
<stop stop-color="#263346"/>
<stop offset="1" stop-color="white"/>
</linearGradient>
<linearGradient id="paint2_linear_117_2777" x1="238.149" y1="184.762" x2="238.149" y2="83.8402" gradientUnits="userSpaceOnUse">
<stop stop-color="#263346"/>
<stop offset="1" stop-color="white"/>
</linearGradient>
<linearGradient id="paint3_linear_117_2777" x1="238.149" y1="184.762" x2="238.149" y2="83.8402" gradientUnits="userSpaceOnUse">
<stop stop-color="#263346"/>
<stop offset="1" stop-color="white"/>
</linearGradient>
<linearGradient id="paint4_linear_117_2777" x1="238.149" y1="184.762" x2="238.149" y2="83.8402" gradientUnits="userSpaceOnUse">
<stop stop-color="#263346"/>
<stop offset="1" stop-color="white"/>
</linearGradient>
<linearGradient id="paint5_linear_117_2777" x1="238.149" y1="184.762" x2="238.149" y2="83.8402" gradientUnits="userSpaceOnUse">
<stop stop-color="#263346"/>
<stop offset="1" stop-color="white"/>
</linearGradient>
<linearGradient id="paint6_linear_117_2777" x1="238.149" y1="184.762" x2="238.149" y2="83.8402" gradientUnits="userSpaceOnUse">
<stop stop-color="#263346"/>
<stop offset="1" stop-color="white"/>
</linearGradient>
<linearGradient id="paint7_linear_117_2777" x1="238.149" y1="184.762" x2="238.149" y2="83.8402" gradientUnits="userSpaceOnUse">
<stop stop-color="#263346"/>
<stop offset="1" stop-color="white"/>
</linearGradient>
</defs>
</svg>
