<svg width="27" height="35" viewBox="0 0 27 35" fill="none" xmlns="http://www.w3.org/2000/svg">
<path d="M16.0723 1.61306L14.9034 0.734469C14.5029 0.434606 14.0104 0.271851 13.5035 0.271851C12.9965 0.271851 12.504 0.434606 12.1035 0.734469L10.9075 1.61306L1.15539 8.91067C0.879368 9.11698 0.655724 9.38128 0.501461 9.6835C0.347198 9.98571 0.266376 10.3179 0.265137 10.6548V24.3583C0.265871 24.6952 0.346475 25.0275 0.500777 25.3298C0.655079 25.6321 0.878989 25.8964 1.15539 26.1023L10.9075 33.3999L12.0831 34.2785C12.485 34.5752 12.977 34.736 13.4831 34.736C13.9891 34.736 14.4811 34.5752 14.883 34.2785L16.0723 33.3999L25.8583 26.1023C26.1359 25.8974 26.3606 25.6334 26.515 25.3308C26.6695 25.0283 26.7494 24.6955 26.7486 24.3583V10.6548C26.7489 10.3176 26.6687 9.98495 26.5143 9.68251C26.36 9.38006 26.1355 9.11597 25.8583 8.91067L16.0723 1.61306Z" fill="#845EA7"/>
<path d="M13.5034 34.9998C12.9369 35.0015 12.3862 34.819 11.9403 34.4819L0.992227 26.3057C0.681494 26.0732 0.430381 25.7749 0.258325 25.4338C0.0862698 25.0927 -0.00210621 24.718 3.81087e-05 24.3386V10.6548C-0.000575628 10.2757 0.0884598 9.9015 0.260399 9.56063C0.432339 9.21976 0.682643 8.92124 0.992227 8.6878L11.9403 0.511597C12.3888 0.179818 12.9382 0 13.5034 0C14.0686 0 14.6179 0.179818 15.0664 0.511597L26.0078 8.6878C26.3174 8.92124 26.5676 9.21976 26.7396 9.56063C26.9115 9.9015 27.0006 10.2757 27 10.6548V24.3583C27.0021 24.7377 26.9137 25.1124 26.7417 25.4535C26.5696 25.7946 26.3185 26.0929 26.0078 26.3253L15.0664 34.5015C14.6174 34.8308 14.0674 35.0061 13.5034 34.9998ZM13.5034 0.531271C13.0537 0.530745 12.6165 0.673663 12.2597 0.937783L1.31844 9.14021C1.07477 9.32276 0.877211 9.55628 0.740659 9.82318C0.604108 10.0901 0.532122 10.3834 0.530114 10.681V24.3845C0.531093 24.6833 0.602576 24.9779 0.739166 25.246C0.875757 25.5141 1.07387 25.7487 1.31844 25.9319L12.2666 34.0557C12.6225 34.3189 13.0584 34.4615 13.5068 34.4615C13.9552 34.4615 14.3911 34.3189 14.747 34.0557L25.6952 25.8795C25.9385 25.6956 26.1353 25.4607 26.2707 25.1926C26.4061 24.9246 26.4765 24.6303 26.4767 24.3321V10.6548C26.4706 10.3616 26.3967 10.0735 26.2603 9.8114C26.1239 9.54934 25.9285 9.32001 25.6884 9.14021L15.9091 1.81638L14.7403 0.937783C14.3854 0.675029 13.9507 0.532188 13.5034 0.531271Z" fill="black"/>
<g style="mix-blend-mode:screen">
<path d="M13.6259 26.8432C13.6599 25.5777 13.6259 24.3123 13.6667 23.0403C13.7075 21.7683 13.7211 20.4176 13.7551 19.1062C13.8298 16.5295 13.9114 13.9592 13.9589 11.3825C14.0133 8.03199 13.8366 4.68151 13.6803 1.3376C13.1555 1.30161 12.6354 1.45333 12.2192 1.76378L11.1183 2.58337L1.94386 9.42857C1.77066 9.55826 1.61935 9.71309 1.49533 9.88753C2.63368 10.54 3.73611 11.249 4.79813 12.0119C5.87867 12.7659 6.94561 13.5199 8.08052 14.1822C8.08648 14.1921 8.08962 14.2034 8.08962 14.215C8.08962 14.2265 8.08648 14.2378 8.08052 14.2477C7.95365 14.8073 7.86735 15.3748 7.82227 15.9459C7.74752 16.9622 7.76791 17.9785 7.76111 18.9948C7.76111 19.5259 7.76112 20.057 7.72034 20.5881C8.18246 20.2537 8.64458 19.9324 9.12029 19.6046C9.18145 19.5652 9.23581 19.657 9.18145 19.6964C8.67855 20.0307 8.18926 20.352 7.70676 20.7323C7.68059 21.1716 7.63068 21.6093 7.55725 22.0437C7.55725 22.1158 7.43492 22.083 7.44851 22.0437C7.51647 21.6437 7.55724 21.2437 7.59122 20.8438L7.23104 21.106C6.05536 21.9846 4.88648 22.8895 3.64963 23.6959C2.92245 24.1859 2.15929 24.6241 1.36621 25.0073C1.50298 25.2267 1.68036 25.4201 1.88951 25.5777L11.0639 32.4295L12.1648 33.2556C12.5322 33.531 12.984 33.6809 13.4492 33.6818C13.3899 31.4008 13.4489 29.1184 13.6259 26.8432Z" fill="#A884BC"/>
</g>
<g style="mix-blend-mode:multiply">
<path d="M22.0598 22.5419C21.6711 22.2555 21.3238 21.9203 21.0269 21.5453C20.7674 21.2106 20.6076 20.8138 20.5647 20.3979C20.5206 19.8843 20.5342 19.3677 20.6055 18.857C20.6055 18.6013 20.6599 18.3522 20.6803 18.0965C20.7007 17.8408 20.6803 17.6244 20.7142 17.3883C20.8337 16.0697 20.7304 14.741 20.4084 13.4543C20.4007 13.445 20.3965 13.4335 20.3965 13.4215C20.3965 13.4096 20.4007 13.3981 20.4084 13.3888C21.0201 13.0478 21.6181 12.6872 22.2161 12.3135C23.3171 11.6578 24.4112 10.9234 25.5461 10.2874L26.1849 9.94649C26.0334 9.61886 25.7999 9.3327 25.5053 9.11378L16.1746 2.15057L15.0533 1.31131C14.7424 1.07741 14.3711 0.930034 13.9795 0.885132C14.0339 1.96699 14.0815 3.04884 14.1291 4.16348C14.2446 6.78616 14.2922 9.40884 14.2446 12.0315C14.197 14.6542 14.1087 17.2769 14.0339 19.8996C13.9999 21.2109 13.9728 22.5222 13.9524 23.886C13.932 25.2498 13.9524 26.3776 13.898 27.6299C13.7474 29.7139 13.7156 31.8042 13.8029 33.8915C14.2567 33.8731 14.6934 33.7196 15.0533 33.4523L16.1746 32.613L25.5393 25.617C25.6294 25.5519 25.7135 25.4795 25.7908 25.4006C25.3422 25.0269 24.8733 24.6794 24.4316 24.2991C23.684 23.65 22.8278 23.1517 22.0598 22.5419Z" fill="#A884BC"/>
</g>
<g style="mix-blend-mode:multiply">
<path d="M15.5358 4.70119L14.6116 4.00618C14.2942 3.77011 13.9047 3.64209 13.5039 3.64209C13.1031 3.64209 12.7136 3.77011 12.3961 4.00618L11.4651 4.70119L3.73143 10.4514C3.51708 10.6159 3.34446 10.8255 3.2267 11.0641C3.10894 11.3027 3.04913 11.5641 3.05185 11.8283V22.6731C3.04913 22.9374 3.10894 23.1987 3.2267 23.4373C3.34446 23.6759 3.51708 23.8855 3.73143 24.05L11.4651 29.8265L12.3961 30.5215C12.7136 30.7575 13.1031 30.8856 13.5039 30.8856C13.9047 30.8856 14.2942 30.7575 14.6116 30.5215L15.5358 29.8265L23.2695 24.05C23.4839 23.8855 23.6565 23.6759 23.7743 23.4373C23.892 23.1987 23.9518 22.9374 23.9491 22.6731V11.8545C23.9518 11.5903 23.892 11.3289 23.7743 11.0903C23.6565 10.8517 23.4839 10.6422 23.2695 10.4776L15.5358 4.70119Z" fill="#A884BC"/>
</g>
<g style="mix-blend-mode:multiply">
<path d="M23.2695 10.4513L20.7143 8.54333C21.2464 9.3472 21.6282 10.2349 21.8424 11.166C21.9467 11.7661 21.9967 12.3738 21.9919 12.9822C21.9919 13.6379 22.0463 14.3591 22.0667 15.0476C22.1267 16.4487 22.1018 17.8521 21.9919 19.2504C21.9422 19.8924 21.8445 20.53 21.6997 21.1584C21.5482 21.7199 21.3316 22.2632 21.0541 22.7779C20.4843 23.804 19.74 24.7304 18.8522 25.5186C17.9106 26.4058 16.839 27.1547 15.6718 27.7414C14.621 28.2784 13.4613 28.5872 12.2738 28.6462C11.1424 28.6702 10.02 28.446 8.99142 27.9905H8.94385L11.4651 29.8723L12.3962 30.5673C12.7136 30.8034 13.1031 30.9314 13.5039 30.9314C13.9047 30.9314 14.2942 30.8034 14.6116 30.5673L15.5358 29.8723L23.2695 24.0958C23.4839 23.9313 23.6565 23.7218 23.7743 23.4832C23.892 23.2446 23.9518 22.9832 23.9491 22.7189V11.8545C23.956 11.5858 23.8982 11.3193 23.7803 11.0758C23.6624 10.8323 23.4876 10.6186 23.2695 10.4513Z" fill="#A884BC"/>
</g>
<g style="mix-blend-mode:screen">
<path d="M9.33086 27.3152C8.73283 26.7382 8.14159 26.1415 7.57074 25.5317C6.99989 24.922 5.53199 23.6303 5.06987 22.9943C4.26796 21.86 4.82521 12.3659 5.30092 11.8872C5.77663 11.4086 13.0142 5.65838 13.7278 5.60593C14.5206 5.61363 15.2979 5.81918 15.984 6.20259C16.5685 6.47141 17.1529 6.75991 17.7169 7.06807L15.5355 5.44201L14.6588 4.78634C14.3589 4.56037 13.9894 4.43762 13.6089 4.43762C13.2284 4.43762 12.8588 4.56037 12.5589 4.78634L11.6754 5.44201L4.34951 10.9169C4.13966 11.0706 3.96924 11.2688 3.85141 11.4962C3.73358 11.7235 3.67148 11.974 3.66992 12.2282V22.5091C3.67045 22.7635 3.73209 23.0143 3.85 23.2418C3.96792 23.4693 4.13889 23.6674 4.34951 23.8204L10.4658 28.4101C10.1124 28.0495 9.71823 27.6889 9.33086 27.3152Z" fill="#A884BC"/>
</g>
<g style="mix-blend-mode:screen">
<path d="M13.6255 6.51759C13.6255 6.51759 5.6404 11.8351 5.6404 12.8383C5.6404 13.8414 4.96083 23.0798 5.56566 22.7716C6.17049 22.4635 19.837 11.0811 18.4778 9.90741C16.9555 8.59607 15.1206 5.86192 13.6255 6.51759Z" fill="#A884BC"/>
</g>
<g style="mix-blend-mode:multiply">
<path d="M23.0514 22.824C23.1057 22.0306 23.1397 17.3623 23.1397 16.6673C23.1514 16.3707 23.1147 16.0742 23.031 15.7887C22.963 15.592 22.8135 15.3166 22.5553 15.3494C22.4316 15.3794 22.3174 15.4379 22.2223 15.5198C21.4 16.6869 17.2749 21.4209 16.1468 22.7322C15.0154 24.0033 13.9581 25.3342 12.9799 26.7187C12.6986 27.1163 12.4596 27.5402 12.2664 27.9841C12.1531 28.1925 12.0856 28.4211 12.0681 28.6558C12.0505 28.8904 12.0833 29.126 12.1644 29.3479C12.2827 29.5658 12.478 29.7356 12.7149 29.8265C12.9259 29.9262 13.16 29.9714 13.3945 29.9577C13.822 29.9109 14.2331 29.772 14.5973 29.5512C15.0864 29.2832 15.5543 28.9808 15.9973 28.6463C16.4458 28.2857 22.9902 23.6633 23.0514 22.824Z" fill="#A884BC"/>
</g>
<g style="mix-blend-mode:screen">
<path d="M14.0874 8.62188C13.7998 8.45347 13.4678 8.36883 13.1314 8.37813C12.795 8.38744 12.4686 8.4903 12.1914 8.67434C11.9642 8.8196 11.7565 8.99137 11.573 9.18576L11.2604 9.44803C10.8291 9.81454 10.4779 10.2603 10.2274 10.7594C10.1089 10.9684 10.0434 11.2016 10.0363 11.4398C10.0292 11.678 10.0807 11.9144 10.1866 12.1297C10.3011 12.349 10.4771 12.5328 10.6946 12.6603C10.912 12.7878 11.1622 12.8539 11.4167 12.851C11.9554 12.793 12.4653 12.5858 12.8846 12.2543C13.3201 11.9424 13.7088 11.5739 14.0399 11.1593C14.5835 10.4512 15.0389 9.20543 14.0874 8.62188Z" fill="#CEB2D6"/>
</g>
<g style="mix-blend-mode:screen">
<path d="M9.43265 12.8184C8.79384 12.2545 8.0735 13.2774 8.19582 13.8413C8.22415 13.9817 8.29363 14.1113 8.39602 14.2147C8.49841 14.3181 8.62939 14.3911 8.77345 14.4248C9.37829 14.5297 9.59576 13.7691 9.60935 13.3495C9.62218 13.2539 9.61299 13.1567 9.58245 13.0649C9.55191 12.9731 9.50076 12.889 9.43265 12.8184Z" fill="#CEB2D6"/>
</g>
</svg>
