<svg width="36" height="36" viewBox="0 0 36 36" fill="none" xmlns="http://www.w3.org/2000/svg">
<path d="M35.1698 18.0349C35.2558 13.4476 33.7142 9.00965 30.8837 5.69652C28.0533 2.38339 24.1657 0.466163 20.0754 0.366211H15.6415V1.10683C12.5046 2.34126 9.78964 4.64328 7.87559 7.69154C5.96153 10.7398 4.94389 14.3822 4.96467 18.1104C4.98544 21.8385 6.04362 25.4664 7.9915 28.4876C9.93938 31.5088 12.6797 33.7726 15.8301 34.9629V35.6401H21.0188C24.9268 35.2603 28.5608 33.2318 31.1873 29.9643C33.8137 26.6968 35.237 22.4334 35.1698 18.0349Z" fill="#F1B81A"/>
<path d="M19.4719 35.8941H15.8115C15.7414 35.8941 15.6742 35.8629 15.6247 35.8074C15.5752 35.7518 15.5473 35.6764 15.5473 35.5979V35.1324C12.4363 33.9842 9.72864 31.7623 7.81148 28.7843C5.79348 25.6331 4.70801 21.8512 4.70801 17.9716C4.70801 14.0919 5.79348 10.31 7.81148 7.15876C9.67568 4.21222 12.3144 1.99275 15.3587 0.810744V0.324072C15.3587 0.245504 15.3865 0.170145 15.436 0.114589C15.4856 0.0590331 15.5528 0.027832 15.6228 0.027832H20.0568C24.2106 0.0606806 28.1914 1.89757 31.163 5.15266C34.1345 8.40775 35.8657 12.8277 35.9927 17.484C36.1197 22.1404 34.6327 26.6707 31.844 30.1234C29.0554 33.5761 25.1821 35.6824 21.0379 35.9999H19.4719V35.8941ZM16.0756 35.3016H20.9813C24.8612 34.8215 28.4376 32.7202 30.9983 29.4161C33.559 26.1121 34.9162 21.8476 34.7996 17.4719C34.683 13.0961 33.1013 8.93018 30.3692 5.80345C27.6372 2.67673 23.9554 0.81862 20.0568 0.59913H15.887V1.10698C15.8894 1.17287 15.8722 1.23778 15.838 1.29144C15.8038 1.3451 15.7547 1.38444 15.6983 1.40322C12.6577 2.50372 10.0123 4.66949 8.15112 7.58196C6.19363 10.6293 5.14035 14.2899 5.14035 18.0456C5.14035 21.8013 6.19363 25.4619 8.15112 28.5093C10.0104 31.4192 12.6572 33.5787 15.6983 34.6668C15.753 34.6885 15.8005 34.7286 15.8343 34.7816C15.868 34.8346 15.8864 34.898 15.887 34.9631L16.0756 35.3016Z" fill="#C0892A"/>
<g style="mix-blend-mode:multiply">
<path d="M11.188 3.66724C10.912 3.8901 10.6474 4.13029 10.3955 4.38667H29.6597L28.8672 3.66724H11.188Z" fill="#BD8034"/>
<path d="M8.52783 6.54515H31.5467L30.9996 5.82568H9.07499L8.52783 6.54515Z" fill="#BD8034"/>
<path d="M6.20703 10.8833H33.9052L33.6222 10.1638H6.49004L6.20703 10.8833Z" fill="#BD8034"/>
<path d="M4.96191 17.3579H35.1506C35.1506 17.1251 35.1506 16.8712 35.1506 16.6384H4.96191C4.98078 16.8712 4.96191 17.1251 4.96191 17.3579Z" fill="#BD8034"/>
<path d="M25.5658 1.50879H14.5658C14.0946 1.71828 13.6347 1.9585 13.1885 2.22822H26.9243C26.4845 1.9586 26.0309 1.71837 25.5658 1.50879Z" fill="#BD8034"/>
<path d="M7.18848 8.70366H32.9433L32.5282 8.00537H7.58472L7.18848 8.70366Z" fill="#BD8034"/>
<path d="M5.54688 13.041H34.5847C34.5847 12.787 34.4526 12.5543 34.3771 12.3215H5.73557C5.66146 12.5575 5.59847 12.7976 5.54688 13.041Z" fill="#BD8034"/>
<path d="M5.28278 21.6741H34.83C34.83 21.4414 34.83 21.2086 34.9621 20.9758H5.13184L5.28278 21.6741Z" fill="#BD8034"/>
<path d="M4.9995 19.5163H35.1882C35.1882 19.2835 35.1882 19.0508 35.1882 18.7969H4.9995C4.98063 19.0508 4.98063 19.2835 4.9995 19.5163Z" fill="#BD8034"/>
<path d="M5.81106 23.8537H34.3205C34.3205 23.5998 34.4526 23.367 34.5092 23.1343H5.60352C5.66012 23.367 5.73559 23.5998 5.81106 23.8537Z" fill="#BD8034"/>
<path d="M7.71637 28.1706H32.3957C32.5277 27.9378 32.6787 27.7051 32.8107 27.4512H7.30127L7.71637 28.1706Z" fill="#BD8034"/>
<path d="M11.4715 32.4868H28.6602C28.9243 32.2752 29.2073 32.0213 29.4715 31.7673H10.6035C10.8795 32.0267 11.1694 32.2669 11.4715 32.4868Z" fill="#BD8034"/>
<path d="M5.13184 15.1994H34.981C34.981 14.9667 34.981 14.7127 34.981 14.48H5.24504L5.13184 15.1994Z" fill="#BD8034"/>
<path d="M6.60316 26.0122H33.4334C33.5466 25.7794 33.6409 25.5255 33.7353 25.2927H6.30127C6.39561 25.5255 6.48996 25.7794 6.60316 26.0122Z" fill="#BD8034"/>
<path d="M9.26402 30.3291H30.849L31.415 29.6096H8.77344L9.26402 30.3291Z" fill="#BD8034"/>
<path d="M15.1124 34.6665H24.9993C25.5276 34.4549 26.0181 34.2009 26.5087 33.947H13.603C14.0936 34.2009 14.5653 34.4549 15.1124 34.6665Z" fill="#BD8034"/>
</g>
<path d="M16.6601 35.6405C25.0069 35.6405 31.7733 27.73 31.7733 17.9719C31.7733 8.21376 25.0069 0.303223 16.6601 0.303223C8.31329 0.303223 1.54688 8.21376 1.54688 17.9719C1.54688 27.73 8.31329 35.6405 16.6601 35.6405Z" fill="#F1B81A"/>
<path d="M16.6604 35.9154C13.4672 36.0589 10.3086 35.128 7.59087 33.2423C4.87313 31.3566 2.72044 28.6024 1.40958 25.3337C0.0987277 22.065 -0.310373 18.4313 0.234884 14.8998C0.780141 11.3683 2.25484 8.10041 4.46935 5.51631C6.68386 2.93222 9.53695 1.15006 12.6618 0.398944C15.7867 -0.352171 19.0404 -0.0378829 22.0047 1.30138C24.9691 2.64065 27.5084 4.94367 29.2964 7.91435C31.0843 10.885 32.039 14.3876 32.0378 17.9716C32.1136 22.6359 30.5377 27.1436 27.6553 30.507C24.7729 33.8705 20.8191 35.8153 16.6604 35.9154ZM16.6604 0.599224C13.5762 0.464339 10.5264 1.36585 7.90215 3.18808C5.2779 5.01031 3.19887 7.67017 1.93175 10.8265C0.664628 13.9829 0.267185 17.4919 0.790391 20.9033C1.3136 24.3147 2.73357 27.473 4.86824 29.9732C7.0029 32.4734 9.75491 34.2014 12.7712 34.9356C15.7876 35.6698 18.9307 35.3767 21.7975 34.0939C24.6642 32.8111 27.124 30.5971 28.8611 27.7358C30.5982 24.8746 31.5336 21.4966 31.5472 18.0351C31.5948 15.7928 31.2471 13.562 30.5239 11.4708C29.8008 9.37965 28.7165 7.46923 27.3333 5.8492C25.9501 4.22917 24.2953 2.93143 22.4637 2.0305C20.6322 1.12957 18.66 0.643169 16.6604 0.599224Z" fill="#C0892A"/>
<g style="mix-blend-mode:screen" opacity="0.71">
<path d="M21.0186 1.91089L2.60352 20.3201C2.73918 21.3407 2.95382 22.3461 3.24502 23.3249L23.4715 3.2228C22.6947 2.69527 21.873 2.25581 21.0186 1.91089Z" fill="#FFF8A3"/>
<path d="M28.849 9.16846L7.50928 30.4766C9.34122 32.3026 11.5759 33.5447 13.981 34.0739L30.9622 17.1458C30.8606 14.3309 30.1343 11.5889 28.849 9.16846Z" fill="#FFF8A3"/>
</g>
<g style="mix-blend-mode:multiply">
<path d="M16.6607 1.42424C13.7563 1.28911 10.8823 2.13165 8.40841 3.84346C5.93451 5.55527 3.97392 8.05806 2.77883 11.0298C1.58374 14.0016 1.20882 17.3064 1.70233 20.5191C2.19584 23.7318 3.53519 26.7054 5.54807 29.0574C7.56096 31.4094 10.1553 33.0321 12.9973 33.7169C15.8394 34.4017 18.7991 34.1171 21.4958 32.8999C24.1924 31.6826 26.5026 29.5883 28.1292 26.8864C29.7557 24.1846 30.6243 20.9987 30.623 17.7387C30.6938 13.5009 29.2642 9.40448 26.6471 6.34659C24.0301 3.28871 20.4391 1.51868 16.6607 1.42424ZM16.6607 34.6879C13.6532 34.8186 10.6794 33.9381 8.12143 32.1593C5.56345 30.3805 3.53806 27.7847 2.3054 24.7053C1.07274 21.6259 0.689098 18.2036 1.20377 14.8778C1.71845 11.5521 3.10792 8.47487 5.19372 6.04138C7.27953 3.60789 9.96643 1.9293 12.9093 1.22118C15.8521 0.513067 18.9165 0.807754 21.7089 2.06744C24.5013 3.32713 26.8941 5.49428 28.58 8.29051C30.2659 11.0867 31.1679 14.3844 31.1702 17.7598C31.241 22.1603 29.7537 26.4128 27.034 29.5858C24.3144 32.7587 20.5842 34.5934 16.6607 34.6879Z" fill="#C0892A"/>
</g>
</svg>
