<svg width="57" height="75" viewBox="0 0 57 75" fill="none" xmlns="http://www.w3.org/2000/svg">
<path d="M46.5432 42.4085C45.6433 42.4197 44.7748 42.0774 44.1235 41.4549C43.4722 40.8324 43.0897 39.9792 43.058 39.0777L42.4907 21.2046C42.4084 18.8352 41.8284 16.5098 40.7886 14.3804C39.654 12.2767 37.9754 10.518 35.9289 9.28866C33.8825 8.05934 31.5437 7.40476 29.1579 7.39361H26.4833C24.0544 7.50143 21.7022 8.27903 19.6858 9.64077C17.6695 11.0025 16.0671 12.8956 15.0552 15.1115C14.1946 17.2239 13.7806 19.4923 13.8395 21.7733L14.3663 39.687C14.3882 40.5852 14.0558 41.4558 13.4412 42.1098C12.8267 42.7638 11.9795 43.1485 11.0837 43.1803C10.6353 43.1966 10.1881 43.1228 9.76858 42.9632C9.34903 42.8036 8.96561 42.5615 8.64084 42.2511C8.31607 41.9407 8.05653 41.5683 7.87753 41.1559C7.69854 40.7434 7.6037 40.2992 7.59859 39.8494L7.07177 22.0576C6.9456 18.7201 7.54001 15.3947 8.81435 12.3087C10.234 8.94505 12.5585 6.04316 15.5283 3.92711C18.4981 1.81106 21.9963 0.564155 25.6322 0.325638H25.997H28.9958H29.3606C33.0027 0.362212 36.5634 1.41043 39.6469 3.35379C42.7303 5.29714 45.2157 8.05949 46.8269 11.3338C48.2927 14.3339 49.0814 17.6208 49.1368 20.9609L49.6636 38.7527C49.7201 39.6492 49.4259 40.5325 48.8433 41.2151C48.2607 41.8977 47.4356 42.3258 46.5432 42.4085Z" fill="#A9A69B"/>
<path d="M46.5429 42.9359C45.509 42.9378 44.5134 42.5435 43.76 41.8336C43.0067 41.1238 42.5525 40.1521 42.4904 39.1176L42.0041 21.2039C41.9233 18.9429 41.3566 16.726 40.3426 14.7047C39.2677 12.6781 37.6622 10.9834 35.6988 9.80254C33.7353 8.62168 31.488 7.9993 29.1982 8.00226H26.6046C24.2889 8.14707 22.0568 8.92374 20.1497 10.2483C18.2426 11.5728 16.7331 13.3947 15.7844 15.5171C14.9468 17.5498 14.5463 19.7367 14.6092 21.9351V22.1382L15.136 40.0113C15.136 41.0886 14.709 42.1218 13.949 42.8836C13.1891 43.6454 12.1583 44.0733 11.0835 44.0733C10.0087 44.0733 8.97792 43.6454 8.21792 42.8836C7.45793 42.1218 7.03098 41.0886 7.03098 40.0113L6.50416 22.1788C6.36181 18.7573 6.97048 15.3461 8.28724 12.1862C9.76928 8.76058 12.1647 5.81079 15.2104 3.66094C18.256 1.51108 21.8339 0.244371 25.5509 0H25.9562H28.9956H29.4008C33.1162 0.0148365 36.756 1.05335 39.9222 3.00198C43.0885 4.95061 45.6592 7.73434 47.3534 11.0488C48.8442 14.1284 49.6464 17.4971 49.7039 20.9196L50.2307 38.7114C50.2766 39.756 49.9189 40.778 49.232 41.5649C48.5451 42.3518 47.5819 42.8428 46.5429 42.9359ZM26.2804 6.74301H28.9551C31.4523 6.74301 33.9027 7.42331 36.0441 8.71118C38.1854 9.99904 39.9374 11.8461 41.1126 14.0547C42.2192 16.2503 42.828 18.6638 42.8957 21.1227L43.382 39.0364C43.382 39.7905 43.6809 40.5137 44.2129 41.047C44.7449 41.5802 45.4664 41.8798 46.2187 41.8798C46.9711 41.8798 47.6926 41.5802 48.2246 41.047C48.7566 40.5137 49.0555 39.7905 49.0555 39.0364L48.5287 21.2039C48.5635 17.9286 47.8859 14.6849 46.5429 11.6987C44.969 8.51446 42.5449 5.8301 39.5401 3.94409C36.5353 2.05808 33.0676 1.04432 29.5224 1.01551H29.2387H26.1994H25.9157C22.4064 1.27997 19.0375 2.50767 16.1782 4.56405C13.3189 6.62043 11.0796 9.42613 9.70565 12.6736C8.46123 15.682 7.88059 18.9245 8.00357 22.1788L8.53041 40.0113C8.48256 40.4104 8.51969 40.8152 8.63937 41.199C8.75905 41.5827 8.95855 41.9366 9.22471 42.2374C9.49087 42.5381 9.81765 42.7789 10.1835 42.9438C10.5493 43.1087 10.9458 43.194 11.3469 43.194C11.748 43.194 12.1445 43.1087 12.5103 42.9438C12.8761 42.7789 13.2029 42.5381 13.4691 42.2374C13.7352 41.9366 13.9347 41.5827 14.0544 41.199C14.1741 40.8152 14.2113 40.4104 14.1634 40.0113L13.6366 22.1382C13.4263 19.7588 13.7304 17.3618 14.5281 15.1109C15.5563 12.8073 17.1962 10.8312 19.2688 9.3985C21.3414 7.96577 23.7669 7.13148 26.2804 6.98674V6.74301Z" fill="#7D7E81"/>
<g style="mix-blend-mode:screen">
<path d="M10.9623 19.7818C11.3773 17.3654 12.1133 15.0156 13.1507 12.7951C13.639 11.7761 14.2082 10.798 14.8527 9.87037C15.64 8.75427 16.5213 7.70785 17.4868 6.74259C18.5188 5.79487 19.6619 4.97646 20.8909 4.30536C22.1855 3.64271 23.5431 3.11198 24.9434 2.72116L28.1044 1.98999H27.5371C17.2032 3.37109 12.5833 8.48927 10.6381 13.2013C9.4788 16.234 8.90134 19.4589 8.93605 22.7065C9.42235 23.1127 9.94917 23.4783 10.5165 23.8845C10.5491 22.5067 10.6983 21.1343 10.9623 19.7818Z" fill="#A9A69B"/>
</g>
<g style="mix-blend-mode:multiply">
<path d="M42.2471 28.5557L42.4902 39.4826C42.4381 39.9592 42.4868 40.4414 42.6331 40.8979C42.7794 41.3544 43.02 41.7748 43.3393 42.1318C43.6585 42.4889 44.0493 42.7744 44.486 42.9699C44.9228 43.1654 45.3957 43.2665 45.8741 43.2665C46.3524 43.2665 46.8253 43.1654 47.2621 42.9699C47.6988 42.7744 48.0896 42.4889 48.4088 42.1318C48.7281 41.7748 48.9688 41.3544 49.1151 40.8979C49.2613 40.4414 49.31 39.9592 49.2579 39.4826L48.9742 28.7181L42.2471 28.5557Z" fill="#A9A69B"/>
</g>
<g style="mix-blend-mode:multiply">
<path d="M7.27441 29.5308L7.59862 40.0922C7.60373 40.542 7.69857 40.9862 7.87757 41.3986C8.05656 41.8111 8.31611 42.1835 8.64087 42.4939C8.96564 42.8043 9.34907 43.0464 9.76862 43.206C10.1882 43.3655 10.6353 43.4394 11.0838 43.4231C11.9796 43.3913 12.8267 43.0066 13.4413 42.3526C14.0558 41.6985 14.3882 40.8279 14.3663 39.9297L14.1232 29.3684L7.27441 29.5308Z" fill="#A9A69B"/>
</g>
<path d="M50.798 31.3585L6.22036 32.6584C5.37972 32.6689 4.55142 32.8627 3.79298 33.2263C3.03453 33.5898 2.36409 34.1144 1.82816 34.7637C1.29223 35.413 0.903671 36.1714 0.689408 36.9862C0.475145 37.8011 0.440335 38.6529 0.587378 39.4826L5.0046 68.5263C5.0046 68.5263 5.61247 73.8882 13.9606 73.6851L45.2055 72.7508C53.5536 72.5071 53.8373 67.1046 53.8373 67.1046L56.5931 37.8578C56.6909 37.039 56.6136 36.2088 56.3665 35.4223C56.1194 34.6358 55.7081 33.911 55.1599 33.2962C54.6117 32.6814 53.9392 32.1906 53.1871 31.8565C52.435 31.5224 51.6206 31.3526 50.798 31.3585Z" fill="#6C6C65"/>
<path d="M45.2459 73.1982L14.1226 74.0918C5.65286 74.3356 4.68027 68.8518 4.63974 68.4862L0.0198555 39.4831C-0.0544503 38.4899 0.0803212 37.4921 0.415423 36.5544C0.750524 35.6167 1.27849 34.76 1.96507 34.04C3.04893 32.9443 4.48436 32.2681 6.01758 32.1308L50.5952 30.8309C52.204 30.8535 53.7535 31.4432 54.9719 32.4964C56.3129 33.9052 57.0417 35.7897 56.9982 37.7364L54.2425 66.9832C54.364 67.4301 53.6751 72.9545 45.2459 73.1982ZM1.15458 39.4831L5.5718 68.4456C5.5718 68.4456 6.26072 73.32 13.92 73.1169L45.2053 71.9796C46.4973 72.0621 47.7919 71.8655 49.0015 71.4029C50.211 70.9404 51.3074 70.2228 52.2162 69.2986C52.7895 68.6019 53.1547 67.7571 53.2699 66.8614L56.0255 37.6552C56.0562 36.8496 55.9249 36.0461 55.6394 35.2925C55.354 34.5388 54.9203 33.8504 54.364 33.2682C53.3797 32.3929 52.1136 31.9026 50.7978 31.8871L6.22022 33.1869C4.92128 33.2902 3.70084 33.8515 2.77556 34.7711C2.17814 35.39 1.7234 36.1327 1.44333 36.9468C1.16326 37.7609 1.06469 38.6267 1.15458 39.4831Z" fill="#3B3B3C"/>
<g style="mix-blend-mode:multiply" opacity="0.48">
<path d="M50.798 31.3585L6.22036 32.6584C5.37972 32.6689 4.55142 32.8627 3.79298 33.2263C3.03453 33.5898 2.36409 34.1144 1.82816 34.7637C1.29223 35.413 0.903671 36.1714 0.689408 36.9862C0.475145 37.8011 0.440335 38.6529 0.587378 39.4826L5.0046 68.5263C5.0046 68.5263 5.61247 73.8882 13.9606 73.6851L45.2055 72.7508C53.5536 72.5071 53.8373 67.1046 53.8373 67.1046L56.5931 37.8578C56.6909 37.039 56.6136 36.2088 56.3665 35.4223C56.1194 34.6358 55.7081 33.911 55.1599 33.2962C54.6117 32.6814 53.9392 32.1906 53.1871 31.8565C52.435 31.5224 51.6206 31.3526 50.798 31.3585ZM49.8253 63.8549C49.8253 63.8549 49.5417 68.5263 42.4903 68.7294L16.2706 69.5012C9.30025 69.5012 8.77343 65.1548 8.77343 65.1548L5.04513 40.7825C4.98416 40.1205 5.05778 39.453 5.26156 38.8204C5.46534 38.1878 5.795 37.6032 6.23066 37.1019C6.66632 36.6007 7.19891 36.1933 7.79617 35.9043C8.39344 35.6153 9.04299 35.4507 9.70552 35.4206L47.2317 34.3644C47.8964 34.3521 48.5565 34.4776 49.1704 34.7331C49.7844 34.9886 50.339 35.3686 50.7995 35.8493C51.26 36.3299 51.6163 36.9008 51.8462 37.526C52.0761 38.1513 52.1745 38.8174 52.1353 39.4826L49.8253 63.8549Z" fill="#78776F"/>
</g>
<g style="mix-blend-mode:multiply" opacity="0.48">
<path d="M1.56006 35.4218L2.16794 35.7874C3.34317 36.5186 4.51838 37.2498 5.73414 37.8997C6.02824 37.3178 6.44271 36.8054 6.9499 36.3967C6.26098 35.3812 5.61256 34.3657 5.00468 33.3096V33.0658C4.29997 33.2006 3.63047 33.4793 3.03786 33.8847C2.44524 34.29 1.94221 34.8132 1.56006 35.4218Z" fill="#78776F"/>
</g>
<g style="mix-blend-mode:multiply" opacity="0.48">
<path d="M11.4074 71.2889C11.8127 70.5578 12.2179 69.786 12.5826 69.0142C11.5188 68.6811 10.566 68.0631 9.82693 67.2269L7.03069 69.2579C6.57243 69.5466 6.13869 69.8726 5.73389 70.2328C6.26257 71.0283 6.94933 71.7058 7.75124 72.223C8.55314 72.7403 9.45294 73.086 10.3943 73.2387L11.4074 71.2889Z" fill="#78776F"/>
</g>
<g style="mix-blend-mode:multiply" opacity="0.48">
<path d="M51.8109 37.4119L54.5261 36.112L55.985 35.4215C55.7595 34.6809 55.3789 33.9971 54.8688 33.4157C54.3586 32.8343 53.7306 32.3687 53.0267 32.05L49.7847 35.0965C50.7171 35.5975 51.4369 36.42 51.8109 37.4119Z" fill="#78776F"/>
</g>
<g style="mix-blend-mode:multiply" opacity="0.48">
<path d="M49.3793 65.358C48.9095 66.2929 48.1769 67.0695 47.272 67.5921V67.8358C47.7583 69.2575 48.3256 70.6386 48.9335 71.8979C50.5842 71.4994 52.0285 70.5006 52.986 69.0951C51.7702 67.9171 50.595 66.6984 49.3793 65.358Z" fill="#78776F"/>
</g>
<path d="M32.3996 41.3118C32.3897 40.5818 32.1838 39.8681 31.8035 39.2455C31.4232 38.6229 30.8825 38.1146 30.2384 37.774C29.5943 37.4333 28.8704 37.273 28.1431 37.3098C27.4157 37.3466 26.7117 37.5792 26.1051 37.9832C25.4984 38.3871 25.0116 38.9474 24.6958 39.6052C24.38 40.263 24.2468 40.9939 24.3104 41.7212C24.3739 42.4484 24.6318 43.145 25.0569 43.7377C25.482 44.3305 26.0586 44.7974 26.7261 45.0895L25.1861 52.4418H27.6581H29.7654H32.1969L30.3328 45.0082C30.9833 44.6424 31.5205 44.1037 31.8851 43.4515C32.2498 42.7993 32.4278 42.0589 32.3996 41.3118Z" fill="#231F20"/>
<g style="mix-blend-mode:screen">
<path d="M7.11249 53.7406L5.20784 41.7981C5.20784 41.7981 4.55944 37.7361 6.78832 36.3144C6.78832 36.3144 7.47724 35.3395 10.8408 35.1364C14.2044 34.9333 24.9435 35.1364 24.9435 35.1364C24.9435 35.1364 7.96352 35.1364 6.82882 38.9547C6.44337 43.8808 6.53837 48.8329 7.11249 53.7406Z" fill="white"/>
</g>
<g style="mix-blend-mode:screen">
<path d="M50.5958 54.8792L49.8258 64.3438C49.5323 65.419 48.9234 66.381 48.078 67.1053C47.2326 67.8296 46.1897 68.2826 45.0844 68.4058L35.2773 68.7308C38.8754 68.4035 42.4402 67.7785 45.9354 66.8623C46.7105 66.4686 47.3801 65.8942 47.8878 65.1874C48.3955 64.4805 48.7266 63.6619 48.8532 62.8002L50.5958 54.8792Z" fill="white"/>
</g>
<g style="mix-blend-mode:screen" opacity="0.36">
<path d="M13.353 59.5503C13.2781 59.2608 13.125 58.9977 12.9105 58.7898C12.6959 58.582 12.4284 58.4375 12.1372 58.3723C11.8032 58.2878 11.4517 58.3045 11.1271 58.4202C10.8025 58.5359 10.5194 58.7454 10.3136 59.0223C10.1999 59.1812 10.1174 59.3604 10.0704 59.5503C10.0704 59.5503 10.0704 59.794 10.0704 59.9159C9.93941 60.3392 9.93941 60.7924 10.0704 61.2158C10.1809 61.4372 10.3682 61.6105 10.5972 61.7032C10.9131 61.8719 11.2732 61.939 11.6285 61.8954C11.9838 61.8518 12.3171 61.6996 12.583 61.4595C12.8804 61.1968 13.1039 60.8607 13.2314 60.4846C13.3565 60.1902 13.3986 59.867 13.353 59.5503Z" fill="white"/>
</g>
<g style="mix-blend-mode:screen" opacity="0.36">
<path d="M14.8525 60.6054C14.7278 60.6065 14.6064 60.6462 14.505 60.7188C14.4035 60.7915 14.3267 60.8937 14.2852 61.0116C14.2852 61.2553 14.2852 61.4584 14.6094 61.4178C14.7341 61.4166 14.8554 61.377 14.9569 61.3043C15.0584 61.2316 15.1351 61.1294 15.1767 61.0116C15.2021 60.9627 15.2128 60.9075 15.2074 60.8526C15.2021 60.7978 15.1809 60.7456 15.1466 60.7026C15.1123 60.6596 15.0662 60.6275 15.014 60.6102C14.9617 60.5929 14.9057 60.5913 14.8525 60.6054Z" fill="white"/>
</g>
<g style="mix-blend-mode:screen" opacity="0.36">
<path d="M16.4734 65.1559C16.3938 65.0624 16.2941 64.9883 16.1817 64.939C16.0694 64.8898 15.9474 64.8667 15.825 64.8715H15.5413H15.1766C15.1396 64.8502 15.0977 64.8389 15.055 64.8389C15.0123 64.8389 14.9704 64.8502 14.9334 64.8715C14.8543 64.8466 14.7694 64.8466 14.6903 64.8715C14.5318 65.1375 14.4733 65.4514 14.5253 65.7568C14.5773 66.0621 14.7364 66.3388 14.9739 66.537C15.143 66.6655 15.3494 66.735 15.5616 66.735C15.7737 66.735 15.9801 66.6655 16.1492 66.537C16.2788 66.4204 16.3884 66.2832 16.4734 66.1308C16.5784 65.8144 16.5784 65.4723 16.4734 65.1559Z" fill="white"/>
</g>
<g style="mix-blend-mode:screen" opacity="0.36">
<path d="M18.8646 61.1748C18.4999 61.1748 18.2162 61.8247 18.8646 61.7841C19.513 61.7435 19.3104 61.1748 18.8646 61.1748Z" fill="white"/>
</g>
<g style="mix-blend-mode:screen" opacity="0.36">
<path d="M44.9224 44.7238C44.7059 44.3507 44.3806 44.053 43.9903 43.8708C43.7754 43.7175 43.5317 43.6097 43.2739 43.5538C43.0161 43.498 42.7497 43.4952 42.4909 43.5458C41.9939 43.6502 41.5412 43.9055 41.1941 44.277C40.8925 44.5412 40.6608 44.8759 40.5194 45.2515C40.378 45.6271 40.3313 46.0318 40.3836 46.4298C40.4558 46.6708 40.5804 46.8927 40.7483 47.0798C40.8532 47.3118 41.0219 47.5091 41.2346 47.6485C41.5686 47.8371 41.9454 47.9362 42.3288 47.9362C42.7121 47.9362 43.089 47.8371 43.4229 47.6485C43.7972 47.4899 44.1324 47.2515 44.4053 46.9498C44.6783 46.6482 44.8824 46.2905 45.0034 45.9018C45.1013 45.5104 45.0729 45.098 44.9224 44.7238Z" fill="white"/>
</g>
<g style="mix-blend-mode:screen" opacity="0.36">
<path d="M40.7885 37.29C40.7105 37.1407 40.5808 37.0251 40.4237 36.965C40.1924 36.8602 39.9464 36.7917 39.6943 36.7619C39.1943 36.7715 38.7054 36.9115 38.2759 37.1681C38.0359 37.3254 37.8568 37.5602 37.7683 37.8336C37.6799 38.1071 37.6874 38.4026 37.7896 38.6711C37.7896 38.6711 37.7896 38.6711 37.7896 38.9148C37.8374 39.0589 37.9227 39.1875 38.0367 39.2875C38.1507 39.3875 38.2892 39.4551 38.438 39.4835C38.6499 39.5444 38.8746 39.5444 39.0864 39.4835C39.5988 39.3897 40.0676 39.1333 40.4237 38.7523C40.6454 38.5897 40.8034 38.3544 40.87 38.0873C40.9366 37.8201 40.9078 37.538 40.7885 37.29Z" fill="white"/>
</g>
<g style="mix-blend-mode:screen" opacity="0.36">
<path d="M47.3129 39.4834V39.2803C47.1672 39.2386 47.0128 39.2386 46.8671 39.2803C46.655 39.2215 46.4309 39.2215 46.2187 39.2803H45.935L45.6919 39.524C45.5413 39.7082 45.4184 39.9135 45.3271 40.1334C45.3271 40.1334 45.3271 40.3771 45.3271 40.4989C45.3271 40.4989 45.3271 40.4989 45.3271 40.7833C45.3708 40.9047 45.4573 41.0058 45.5703 41.0676H45.8945H46.2998C46.5759 40.9839 46.8175 40.8129 46.9887 40.5802L47.3534 40.0927C47.4061 39.9485 47.4061 39.7902 47.3534 39.6459L47.3129 39.4834Z" fill="white"/>
</g>
<g style="mix-blend-mode:screen" opacity="0.36">
<path d="M48.772 48.866C48.772 48.866 48.772 48.866 48.772 48.6629H48.4883V48.9879H48.934C48.934 48.9879 48.934 48.9879 48.934 48.7848L48.772 48.866Z" fill="white"/>
</g>
<g style="mix-blend-mode:screen" opacity="0.36">
<path d="M42.4905 62.3125C42.3031 62.2763 42.1105 62.2763 41.9231 62.3125C41.7156 62.3153 41.5126 62.3732 41.3346 62.4802C41.1567 62.5872 41.0102 62.7396 40.91 62.9218C40.8698 63.0403 40.8698 63.1688 40.91 63.2874C40.887 63.3944 40.887 63.5052 40.91 63.6123C40.8955 63.7201 40.8955 63.8294 40.91 63.9373C41.0221 63.9977 41.1474 64.0294 41.2747 64.0294C41.402 64.0294 41.5273 63.9977 41.6394 63.9373C41.8677 63.8645 42.0758 63.7393 42.2473 63.5717C42.3799 63.4346 42.4772 63.2674 42.531 63.0843C42.5681 62.9791 42.5681 62.8644 42.531 62.7593L42.4905 62.3125Z" fill="white"/>
</g>
<g style="mix-blend-mode:screen" opacity="0.36">
<path d="M22.2278 60.5661C22.1213 60.5525 22.0134 60.5778 21.9241 60.6375C21.8348 60.6972 21.7699 60.7873 21.7415 60.8911C21.7181 60.9306 21.7064 60.9759 21.7076 61.0218C21.7088 61.0677 21.7229 61.1123 21.7484 61.1505C21.7738 61.1887 21.8094 61.219 21.8513 61.2377C21.8931 61.2565 21.9393 61.2631 21.9847 61.2567C22.0935 61.2535 22.1986 61.2167 22.2857 61.1513C22.3728 61.0858 22.4375 60.9949 22.4709 60.8911C22.4709 60.8911 22.2278 60.5255 22.2278 60.5661Z" fill="white"/>
</g>
</svg>
