<svg width="41" height="41" viewBox="0 0 41 41" fill="none" xmlns="http://www.w3.org/2000/svg">
<g clip-path="url(#clip0_129_3706)">
<path d="M32.2211 1.12769H8.47111C4.41525 1.12769 1.12744 4.41558 1.12744 8.47144H39.5649C39.5649 4.41565 36.277 1.12769 32.2211 1.12769Z" fill="#FFCD69"/>
<path d="M39.5649 20.3465L35.229 15.9963H5.46338L1.12744 20.3465H39.5649Z" fill="#C193DC"/>
<path d="M39.5648 8.47144L35.2388 15.9962H5.47314L1.13721 8.47144H39.5648Z" fill="#D1AEE5"/>
<path d="M1.12744 20.3464H39.5649V39.5652H1.12744V20.3464Z" fill="#FFCD69"/>
<path d="M32.6899 20.3464C32.6899 22.245 34.2289 23.7839 36.1274 23.7839C36.1274 25.6825 37.6664 27.2214 39.5649 27.2214V20.3464H32.6899ZM8.00244 20.3464C8.00244 22.245 6.46346 23.7839 4.56494 23.7839C4.56494 25.6825 3.02596 27.2214 1.12744 27.2214V20.3464H8.00244ZM8.00244 39.5652C8.00244 37.6667 6.46346 36.1277 4.56494 36.1277C4.56494 34.2292 3.02596 32.6902 1.12744 32.6902V39.5652H8.00244ZM32.6899 39.5652C32.6899 37.6667 34.2289 36.1277 36.1274 36.1277C36.1274 34.2292 37.6664 32.6902 39.5649 32.6902V39.5652H32.6899Z" fill="#FFDA8F"/>
<path d="M4.56494 23.7839H36.1274V36.1277H4.56494V23.7839Z" fill="#C68A86"/>
<path d="M20.3462 30.0339C18.6203 30.0339 17.2212 28.6348 17.2212 26.9089V23.7839H23.4712V26.9089C23.4712 28.6349 22.0721 30.0339 20.3462 30.0339ZM17.2212 1.12769H23.4712V8.47144H17.2212V1.12769ZM28.5168 16.7136C28.5168 14.4376 26.6717 12.5925 24.3957 12.5925C26.6717 12.5925 28.5168 10.7475 28.5168 8.47144C28.5168 10.7475 30.3619 12.5925 32.6379 12.5925C30.3619 12.5925 28.5168 14.4376 28.5168 16.7136Z" fill="#FFDA8F"/>
<path d="M13.1328 12.5925C13.1328 10.3165 11.2877 8.47144 9.01172 8.47144C11.2877 8.47144 13.1328 6.62636 13.1328 4.35034C13.1328 6.62636 14.9779 8.47144 17.2539 8.47144C14.9779 8.47144 13.1328 10.3165 13.1328 12.5925Z" fill="#FFDA8F"/>
<path d="M40.1183 19.795V19.795L36.2043 15.8681L40.2417 8.86151C40.3101 8.74288 40.3461 8.60836 40.3461 8.47144C40.3461 3.99128 36.7013 0.346436 32.2212 0.346436H8.47119C3.99104 0.346436 0.346192 3.99128 0.346192 8.47144C0.346192 8.60839 0.382129 8.74284 0.450489 8.86144L4.48783 15.8683L0.574161 19.7949C0.501774 19.8673 0.44438 19.9534 0.405262 20.048C0.366145 20.1426 0.346072 20.244 0.346192 20.3464V39.5652C0.346192 39.9966 0.695958 40.3464 1.12744 40.3464H39.5649C39.9963 40.3464 40.3462 39.9966 40.3462 39.5652V20.3464C40.3463 20.2441 40.3263 20.1427 40.2871 20.048C40.248 19.9534 40.1907 19.8674 40.1183 19.795ZM1.90869 27.9297C2.61018 27.7978 3.25041 27.4914 3.78369 27.0579V32.8537C3.25041 32.4203 2.61018 32.1138 1.90869 31.9819V27.9297ZM31.9816 21.1277C32.1135 21.8292 32.4199 22.4694 32.8534 23.0027H7.839C8.27252 22.4694 8.57893 21.8292 8.7108 21.1277H31.9816ZM35.3462 35.3464H5.34619V24.5652H16.4399V26.9089C16.4399 29.0628 18.1923 30.8152 20.3462 30.8152C22.5001 30.8152 24.2524 29.0628 24.2524 26.9089V24.5652H35.3462V35.3464ZM20.3462 26.2579C20.7777 26.2579 21.1274 25.9081 21.1274 25.4767V24.5652H22.6899V26.9089C22.6899 28.2013 21.6385 29.2527 20.3462 29.2527C19.0538 29.2527 18.0024 28.2013 18.0024 26.9089V24.5652H19.5649V25.4767C19.5649 25.9081 19.9148 26.2579 20.3462 26.2579ZM32.8535 36.9089C32.42 37.4422 32.1135 38.0825 31.9817 38.7839H8.7108C8.57893 38.0825 8.27244 37.4422 7.839 36.9089H32.8535ZM36.9087 27.0579C37.442 27.4914 38.0822 27.7978 38.7837 27.9297V31.9818C38.0822 32.1137 37.442 32.4202 36.9087 32.8536V27.0579ZM38.7837 26.3228C37.6991 25.9884 36.9087 24.9768 36.9087 23.7839C36.9087 23.3525 36.5588 23.0027 36.1274 23.0027C34.9346 23.0027 33.923 22.2122 33.5886 21.1277H38.7837V26.3228ZM28.5168 11.124C28.8967 11.7121 29.3973 12.2126 29.9853 12.5925C29.3973 12.9724 28.8967 13.473 28.5168 14.061C28.1369 13.473 27.6363 12.9724 27.0483 12.5925C27.6364 12.2127 28.1369 11.7121 28.5168 11.124ZM32.6379 13.3738C33.0693 13.3738 33.4192 13.0239 33.4192 12.5925C33.4192 12.1611 33.0693 11.8113 32.6379 11.8113C31.0654 11.8113 29.744 10.7185 29.3913 9.25269H38.213L34.7773 15.2149H29.6546C30.2049 14.1241 31.3351 13.3738 32.6379 13.3738ZM38.736 7.69019H24.2524V1.90894H32.2212C35.5753 1.90894 38.3485 4.43855 38.736 7.69019ZM22.6899 1.90894V7.69019H21.1274V6.59644C21.1274 6.16503 20.7777 5.81519 20.3462 5.81519C19.9147 5.81519 19.5649 6.16503 19.5649 6.59644V7.69019H18.0024V1.90894H22.6899ZM8.47119 1.90894H16.4399V7.58948C14.9904 7.22511 13.9139 5.91128 13.9139 4.35034C13.9139 3.91894 13.5642 3.56909 13.1327 3.56909C12.7012 3.56909 12.3514 3.91894 12.3514 4.35034C12.3514 6.1919 10.8531 7.69019 9.01158 7.69019H1.95635C2.34385 4.43855 5.11697 1.90894 8.47119 1.90894ZM14.6012 8.47144C14.0132 8.85135 13.5126 9.35191 13.1327 9.93995C12.7528 9.35191 12.2522 8.85135 11.6642 8.47144C12.2522 8.09152 12.7528 7.59096 13.1327 7.00292C13.5125 7.59099 14.0131 8.09157 14.6012 8.47144ZM5.78783 16.7774H14.3091C14.7406 16.7774 15.0903 16.4275 15.0903 15.9961C15.0903 15.5647 14.7406 15.2149 14.3091 15.2149H5.91471L2.47924 9.25269H9.01158C10.8531 9.25269 12.3514 10.751 12.3514 12.5925C12.3514 13.0239 12.7012 13.3738 13.1327 13.3738C13.5642 13.3738 13.9139 13.0239 13.9139 12.5925C13.9139 10.751 15.4122 9.25269 17.2538 9.25269H27.6424C27.2896 10.7185 25.9682 11.8113 24.3957 11.8113C23.9643 11.8113 23.6145 12.1611 23.6145 12.5925C23.6145 13.0239 23.9643 13.3738 24.3957 13.3738C25.6985 13.3738 26.8288 14.1241 27.379 15.2149H21.3403C20.9088 15.2149 20.559 15.5647 20.559 15.9961C20.559 16.4275 20.9088 16.7774 21.3403 16.7774H27.7388C27.7713 17.1789 28.1069 17.4949 28.5168 17.4949C28.9267 17.4949 29.2623 17.1789 29.2949 16.7774H34.9045L37.6831 19.5652H3.00924L5.78783 16.7774ZM7.10385 21.1277C6.7694 22.2122 5.75783 23.0027 4.56494 23.0027C4.13346 23.0027 3.78369 23.3525 3.78369 23.7839C3.78369 24.9768 2.99322 25.9884 1.90869 26.3228V21.1277H7.10385ZM1.90869 33.5889C2.99322 33.9232 3.78369 34.9348 3.78369 36.1277C3.78369 36.5591 4.13346 36.9089 4.56494 36.9089C5.75783 36.9089 6.7694 37.6994 7.10377 38.7839H1.90869V33.5889ZM33.5886 38.7839C33.923 37.6994 34.9346 36.9089 36.1274 36.9089C36.5588 36.9089 36.9087 36.5591 36.9087 36.1277C36.9087 34.9348 37.6991 33.9232 38.7837 33.5889V38.7839H33.5886Z" fill="black"/>
<path d="M17.8252 16.7776C18.0299 16.7776 18.2314 16.6941 18.3775 16.5487C18.5233 16.4018 18.6053 16.2033 18.6057 15.9963C18.6057 15.7909 18.5229 15.5893 18.3775 15.4441C18.2308 15.2979 18.0323 15.2156 17.8252 15.2151C17.6178 15.2153 17.4189 15.2976 17.2721 15.4441C17.1263 15.591 17.0443 15.7894 17.0439 15.9963C17.0439 16.2019 17.1268 16.4034 17.2721 16.5487C17.4192 16.6947 17.6179 16.7769 17.8252 16.7776Z" fill="black"/>
</g>
<defs>
<clipPath id="clip0_129_3706">
<rect width="40" height="40" fill="white" transform="translate(0.346191 0.346436)"/>
</clipPath>
</defs>
</svg>
